<?xml version="1.0" encoding="utf-8"?>
<!-- Generator: Adobe Illustrator 25.2.3, SVG Export Plug-In . SVG Version: 6.00 Build 0)  -->
<svg version="1.1" id="Layer_1" xmlns="http://www.w3.org/2000/svg" xmlns:xlink="http://www.w3.org/1999/xlink" x="0px" y="0px"
	 viewBox="0 0 250 280" style="enable-background:new 0 0 250 280;" xml:space="preserve">
<style type="text/css">
	.st0{fill:#EFF4F4;}
	.st1{fill:#FFFFFF;stroke:#292928;stroke-width:1.5;stroke-linecap:round;stroke-linejoin:round;}
	.st2{fill:none;stroke:#292928;stroke-width:1.5;stroke-linecap:round;stroke-linejoin:round;}
	.st3{fill:#292928;stroke:#292928;stroke-width:1.5;stroke-linecap:round;stroke-linejoin:round;}
	.st4{fill:none;stroke:#FFFFFF;stroke-width:1.5;stroke-linecap:round;stroke-linejoin:round;}
</style>
<circle class="st0" cx="127.2" cy="176.8" r="97.5"/>
<g id="icon_kipstegere" transform="translate(-276.913 -536.138)">
	<path id="Path_1210" class="st1" d="M409.4,718.7V789l6.8-3.9v-70.3L409.4,718.7z"/>
	<path id="Path_1211" class="st1" d="M463.4,687.9v70l6.8-3.9v-70L463.4,687.9z"/>
	<path id="Path_1212" class="st1" d="M409.4,718.7l-6.8-3.9v70.2l6.8,3.9V718.7z"/>
	<path id="Path_1213" class="st1" d="M335.2,730.4V746l6.8-3.9v-7.8L335.2,730.4z"/>
	<path id="Path_1214" class="st1" d="M335.2,746l-6.8-3.9v-70.2l6.8,3.9V746z"/>
	<path id="Path_1215" class="st1" d="M463.4,757.9l-6.8-3.9v-62.4l6.8-3.8V757.9z"/>
	<path id="Path_1216" class="st1" d="M416.2,714.8v54.7l47.2-27.1v-54.4L416.2,714.8z"/>
	<path id="Path_1217" class="st1" d="M335.2,675.7v54.6l67.4,39.1v-54.6L335.2,675.7z"/>
	<path id="Path_1218" class="st1" d="M308.1,668l108,62.4l74.4-42.7v-15.6l-74.4,42.6l-108-62.4V668z"/>
	<path id="Path_1219" class="st1" d="M308.1,652.4l108,62.4l74.4-42.7l-108.1-62.4L308.1,652.4z"/>
	<path id="Path_1220" class="st1" d="M321.6,652.5l94.7,54.6l61.3-35.1l-94.7-54.7L321.6,652.5z"/>
	<line id="Line_80" class="st2" x1="382.9" y1="617.3" x2="382.9" y2="633.8"/>
	<path id="Path_1221" class="st1" d="M463.4,679.9l-80.5-46.1l-48.1,26.3"/>
	<path id="Path_1222" class="st1" d="M362.2,675.9l3,6.1l13.4,7.8l10.6,1.7L362.2,675.9z"/>
	<g id="Group_365">
		<path id="Path_1223" class="st3" d="M386.6,701.7l-14.1-8.1v7.8l14.1,8.1L386.6,701.7z"/>
		<path id="Path_1224" class="st4" d="M377.8,699.8L377.8,699.8c0,0.8-0.6,1.4-1.3,1.4c-0.2,0-0.5-0.1-0.7-0.2l0,0
			c-0.6-0.4-1-1-1-1.7l0,0c0-0.7,0.6-1.3,1.3-1.3c0.2,0,0.5,0.1,0.7,0.2l0.1,0C377.4,698.5,377.8,699.1,377.8,699.8z"/>
		<path id="Path_1225" class="st4" d="M383.9,703.3L383.9,703.3c0,0.8-0.6,1.4-1.3,1.4c-0.2,0-0.5-0.1-0.7-0.2l0,0
			c-0.6-0.4-1-1-1-1.7l0,0c0-0.7,0.6-1.3,1.3-1.3c0.2,0,0.5,0.1,0.7,0.2l0.1,0C383.5,702,383.9,702.6,383.9,703.3z"/>
	</g>
	<g id="Group_366">
		<path id="Path_1226" class="st3" d="M406.9,713.5l-14.1-8.1v7.8l14.1,8.1V713.5z"/>
		<path id="Path_1227" class="st4" d="M398,711.6L398,711.6c0,0.8-0.6,1.4-1.3,1.4c-0.2,0-0.5-0.1-0.7-0.2l0,0c-0.6-0.4-1-1-1-1.7
			l0,0c0-0.7,0.6-1.3,1.3-1.3c0.2,0,0.5,0.1,0.7,0.2l0.1,0C397.7,710.3,398,710.9,398,711.6z"/>
		<path id="Path_1228" class="st4" d="M404.2,715.1L404.2,715.1c0,0.8-0.6,1.4-1.3,1.4c-0.2,0-0.5-0.1-0.7-0.2l0,0
			c-0.6-0.4-1-1-1-1.7l0,0c0-0.7,0.6-1.3,1.3-1.3c0.2,0,0.5,0.1,0.7,0.2l0.1,0C403.8,713.9,404.2,714.5,404.2,715.1z"/>
	</g>
	<g id="Group_367">
		<path id="Path_1229" class="st3" d="M331.7,670.1l-14.1-8.1v7.8l14.1,8.1V670.1z"/>
		<path id="Path_1230" class="st4" d="M322.9,668.2L322.9,668.2c0,0.8-0.6,1.4-1.3,1.4c-0.2,0-0.5-0.1-0.7-0.2l0,0
			c-0.6-0.4-1-1-1-1.7l0,0c0-0.7,0.6-1.3,1.3-1.3c0.2,0,0.5,0.1,0.7,0.2l0.1,0C322.5,666.9,322.9,667.5,322.9,668.2z"/>
		<path id="Path_1231" class="st4" d="M329,671.8L329,671.8c0,0.8-0.6,1.4-1.3,1.4c-0.2,0-0.5-0.1-0.7-0.2l0,0c-0.6-0.4-1-1-1-1.7
			l0,0c0-0.7,0.6-1.3,1.3-1.3c0.2,0,0.5,0.1,0.7,0.2l0.1,0C328.6,670.5,329,671.1,329,671.8z"/>
	</g>
	<g id="Group_368">
		<path id="Path_1232" class="st3" d="M352,681.9l-14.1-8.1v7.8l14.1,8.1V681.9z"/>
		<path id="Path_1233" class="st4" d="M343.1,680.1L343.1,680.1c0,0.8-0.6,1.4-1.3,1.4c-0.2,0-0.5-0.1-0.7-0.2l0,0
			c-0.6-0.4-1-1-1-1.7l0,0c0-0.7,0.6-1.3,1.3-1.3c0.2,0,0.5,0.1,0.7,0.2l0.1,0C342.8,678.8,343.1,679.4,343.1,680.1z"/>
		<path id="Path_1234" class="st4" d="M349.3,683.6L349.3,683.6c0,0.8-0.6,1.4-1.3,1.4c-0.2,0-0.5-0.1-0.7-0.2l0,0
			c-0.6-0.4-1-1-1-1.7l0,0c0-0.7,0.6-1.3,1.3-1.3c0.2,0,0.5,0.1,0.7,0.2l0.1,0C348.9,682.3,349.3,682.9,349.3,683.6z"/>
	</g>
	<path id="Path_1235" class="st1" d="M364.7,691.8v0.1c0,1.3-1,2.3-2.3,2.3c-0.4,0-0.8-0.1-1.1-0.3l0,0c-1.1-0.6-1.7-1.8-1.7-3l0,0
		c0-1.3,1-2.3,2.3-2.3c0.4,0,0.8,0.1,1.1,0.3l0.1,0.1C364.1,689.6,364.7,690.6,364.7,691.8z"/>
	<line id="Line_81" class="st2" x1="416.2" y1="714.8" x2="416.2" y2="730.4"/>
	<path id="Path_1236" class="st1" d="M450.2,648.6v-8.1L423,624.8v8.1L450.2,648.6z"/>
	<path id="Path_1237" class="st1" d="M452.7,650.1v-10.9l-2.5,1.3v8.1L452.7,650.1z"/>
	<path id="Path_1238" class="st1" d="M490.5,664.2l-20.4-58.7l-107.8-62.1l20.1,58.2L490.5,664.2z"/>
	<path id="Path_1239" class="st1" d="M362.3,543.3l3.1-2l108.1,62.4l20.3,58.5l-3.3,1.9l-20.4-58.7L362.3,543.3z"/>
	<line id="Line_82" class="st2" x1="470.1" y1="605.5" x2="473.6" y2="603.7"/>
</g>
</svg>
