<?xml version="1.0" encoding="utf-8"?>
<!-- Generator: Adobe Illustrator 25.2.3, SVG Export Plug-In . SVG Version: 6.00 Build 0)  -->
<svg version="1.1" id="Layer_1" xmlns="http://www.w3.org/2000/svg" xmlns:xlink="http://www.w3.org/1999/xlink" x="0px" y="0px"
	 viewBox="0 0 250 320" style="enable-background:new 0 0 250 320;" xml:space="preserve">
<style type="text/css">
	.st0{fill:#EFF4F4;}
	.st1{fill:#FFFFFF;stroke:#292928;stroke-width:1.5;stroke-linecap:round;stroke-linejoin:round;}
	.st2{fill:none;stroke:#292928;stroke-width:1.5;stroke-linecap:round;stroke-linejoin:round;}
	.st3{fill:#292928;stroke:#292928;stroke-width:1.5;stroke-linecap:round;stroke-linejoin:round;}
	.st4{fill:none;stroke:#FFFFFF;stroke-width:1.5;stroke-linecap:round;stroke-linejoin:round;}
	.st5{fill:#FFFFFF;}
	.st6{fill:#292928;}
</style>
<circle class="st0" cx="124.5" cy="180.7" r="97.5"/>
<text transform="matrix(1 0 0 1 960 575)" style="font-family:'MyriadPro-Regular'; font-size:12px;">  padding-top: 50px;</text>
<text transform="matrix(1 0 0 1 960 575)" style="font-family:'MyriadPro-Regular'; font-size:12px;">  padding-top: 50px;</text>
<g id="icon_kogeborde" transform="translate(-912.355 -318.478)">
	<path id="Path_1075" class="st1" d="M956.5,458.3V513l6.8-3.9v-46.8L956.5,458.3z"/>
	<path id="Path_1076" class="st1" d="M1051.2,552l-94.8-54.5l6.9-4v-7.8l20.3-11.7l67.6,39V552z"/>
	<path id="Path_1077" class="st1" d="M1057.9,501.3v70.2l6.8-3.9v-70.2L1057.9,501.3z"/>
	<path id="Path_1078" class="st1" d="M1118.7,473.4v63l6.8-3.9v-63L1118.7,473.4z"/>
	<path id="Path_1079" class="st2" d="M1057.9,571.5l-6.8-3.9v-70.2l6.8,3.9"/>
	<path id="Path_1080" class="st1" d="M1118.7,536.4l-6.8-3.9v-55.2l6.8-3.9V536.4z"/>
	<path id="Path_1081" class="st1" d="M956.5,513l-6.8-3.9v-70.2l6.8,3.9V513z"/>
	<path id="Path_1082" class="st1" d="M1051.2,497.4l-94.6-54.6v20.6l94.6,54.6V497.4z"/>
	<path id="Path_1083" class="st1" d="M1057.9,508.8L943,442.5c1.8-4.3,4.9-8,8.8-10.5l64.7-37.3l114.9,66.3l-64.7,37.3
		C1062.7,500.7,1059.5,504.4,1057.9,508.8z"/>
	<path id="Path_1084" class="st1" d="M1131.5,461.1l-64.7,37.3c-4.1,2.4-7.2,6.1-8.8,10.5l73.6-42.8L1131.5,461.1z"/>
	<g id="Group_262">
		<path id="Path_1085" class="st1" d="M1017.4,402.2c0.7,0.2,30.3,17.7,30.3,17.7l-59.6,34.4l-30.4-17.2L1017.4,402.2z"/>
		<path id="Path_1086" class="st1" d="M990.2,422.7l-24.9,14.1l22.9,12.9l24.4-14.3L990.2,422.7z"/>
		<path id="Path_1087" class="st1" d="M1017.2,407l-24.9,14.1l22.9,12.9l24.4-14.3L1017.2,407z"/>
		<path id="Path_1088" class="st1" d="M1087.7,442.7c0.7,0.2,30.3,17.7,30.3,17.7l-59.6,34.4l-30.4-17.2L1087.7,442.7z"/>
		<path id="Path_1089" class="st1" d="M1052.6,422.3c0.7,0.2,30.3,17.7,30.3,17.7l-59.6,34.4l-30.4-17.1L1052.6,422.3z"/>
		<path id="Path_1090" class="st1" d="M1060.5,463.2l-24.9,14.1l22.9,12.9l24.4-14.3L1060.5,463.2z"/>
		<path id="Path_1091" class="st1" d="M1087.5,447.5l-24.9,14.1l22.9,12.9l24.4-14.3L1087.5,447.5z"/>
		<path id="Path_1092" class="st1" d="M1025.3,443.1l-24.9,14.1l22.9,12.9l24.4-14.3L1025.3,443.1z"/>
		<path id="Path_1093" class="st1" d="M1052.3,427.3l-24.9,14.1l22.9,12.9l24.4-14.3L1052.3,427.3z"/>
	</g>
	<path id="Path_1094" class="st1" d="M1064.7,552l54.1-31.2l-6.8-4.1v-15.5l-13.5-7.7l-33.8,19.5L1064.7,552L1064.7,552z"/>
	<path id="Path_1095" class="st1" d="M1064.7,518l54.1-31.2v-13.4l-54.1,31.5V518z"/>
	<g id="Group_263">
		<path id="Path_1096" class="st3" d="M975.7,461.4l-14.1-8.1v7.8l14.1,8.1V461.4z"/>
		<path id="Path_1097" class="st4" d="M966.9,459.5L966.9,459.5c0,0.8-0.6,1.4-1.3,1.4c-0.2,0-0.5-0.1-0.7-0.2l0,0
			c-0.6-0.4-1-1-1-1.7l0,0c0-0.7,0.6-1.3,1.3-1.3c0.2,0,0.5,0.1,0.7,0.2h0.1C966.5,458.2,966.9,458.8,966.9,459.5z"/>
		<path id="Path_1098" class="st4" d="M973,463L973,463c0,0.8-0.6,1.4-1.3,1.4c-0.2,0-0.5-0.1-0.7-0.2l0,0c-0.6-0.4-1-1-1-1.7l0,0
			c0-0.7,0.6-1.3,1.3-1.3c0.2,0,0.5,0.1,0.7,0.2h0.1C972.7,461.7,973,462.4,973,463z"/>
	</g>
	<g id="Group_264">
		<path id="Path_1099" class="st3" d="M1009.3,480.8l-14.1-8.1v7.8l14.1,8.1V480.8z"/>
		<path id="Path_1100" class="st4" d="M1000.5,478.9L1000.5,478.9c0,0.8-0.6,1.4-1.3,1.4c-0.2,0-0.5-0.1-0.7-0.2l0,0
			c-0.6-0.4-1-1-1-1.7l0,0c0-0.7,0.6-1.3,1.3-1.3c0.2,0,0.5,0.1,0.7,0.2h0.1C1000.1,477.6,1000.5,478.3,1000.5,478.9z"/>
		<path id="Path_1101" class="st4" d="M1006.6,482.5L1006.6,482.5c0,0.8-0.6,1.4-1.3,1.4c-0.2,0-0.5-0.1-0.7-0.2l0,0
			c-0.6-0.4-1-1-1-1.7l0,0c0-0.7,0.6-1.3,1.3-1.3c0.2,0,0.5,0.1,0.7,0.2h0.1C1006.3,481.2,1006.6,481.8,1006.6,482.5z"/>
	</g>
	<g id="Group_265">
		<path id="Path_1102" class="st3" d="M1044.8,501.5l-14.1-8.1v7.8l14.1,8.1V501.5z"/>
		<path id="Path_1103" class="st4" d="M1035.9,499.6L1035.9,499.6c0,0.8-0.6,1.4-1.3,1.4c-0.2,0-0.5-0.1-0.7-0.2l0,0
			c-0.6-0.4-1-1-1-1.7l0,0c0-0.7,0.6-1.3,1.3-1.3c0.2,0,0.5,0.1,0.7,0.2h0.1C1035.6,498.3,1035.9,499,1035.9,499.6z"/>
		<path id="Path_1104" class="st4" d="M1042.1,503.2L1042.1,503.2c0,0.8-0.6,1.4-1.3,1.4c-0.2,0-0.5-0.1-0.7-0.2l0,0
			c-0.6-0.4-1-1-1-1.7l0,0c0-0.7,0.6-1.3,1.3-1.3c0.2,0,0.5,0.1,0.7,0.2h0.1C1041.7,501.9,1042.1,502.5,1042.1,503.2z"/>
	</g>
	<g id="Group_278">
		<g id="Group_266">
			<path id="Path_1105" class="st5" d="M979.3,436.7l-4.2-2.4l13,1.8l-1.1,0.7C984.6,435.7,981.8,435.7,979.3,436.7z"/>
		</g>
		<g id="Group_275">
			<g id="Group_267">
				<path id="Path_1106" class="st5" d="M993.4,429.2c-0.8,0.1-1.7,0.3-2.4,0.7l-3.7-2.2L993.4,429.2z"/>
			</g>
			<g id="Group_268">
				<path id="Path_1107" class="st6" d="M999.3,430.2c0.3,0.2,0.3,0.4,0,0.6s-0.7,0.2-1.1,0c-1-0.6-2.2-0.8-3.4-0.8
					s-2.3,0.3-3.4,0.8c-0.3,0.2-0.7,0.2-1.1,0l-5.5-3.2c-0.2-0.1-0.3-0.2-0.2-0.4c0-0.1,0.1-0.2,0.2-0.2c0.3-0.2,0.7-0.2,1.1,0
					l1.3,0.7l3.7,2.2c0.8-0.3,1.6-0.6,2.4-0.7C995.4,428.9,997.5,429.3,999.3,430.2z"/>
			</g>
			<g id="Group_269">
				<path id="Path_1108" class="st5" d="M995.1,432.7c0.1,0.1,0.1,0.2,0,0.3c-0.1,0.1-0.3,0.1-0.4,0c-0.1-0.1-0.1-0.2,0-0.3
					l-0.5-0.3l0.5,0.3C994.8,432.6,995,432.6,995.1,432.7z"/>
			</g>
			<g id="Group_270">
				<path id="Path_1109" class="st6" d="M996.1,432c0.7,0.4,0.7,1.1,0,1.5c-0.8,0.4-1.8,0.4-2.6,0c-0.4-0.1-0.6-0.6-0.5-1
					c0.1-0.2,0.3-0.4,0.5-0.5l0.5,0.3l0.5,0.3c-0.1,0.1-0.1,0.2,0,0.3c0.1,0.1,0.3,0.1,0.4,0c0.1-0.1,0.1-0.2,0-0.3
					c-0.1-0.1-0.3-0.1-0.4,0l-0.5-0.3l-0.5-0.3C994.4,431.6,995.3,431.6,996.1,432z"/>
			</g>
			<g id="Group_271">
				<path id="Path_1110" class="st5" d="M998.8,435.7l4.2,2.4l-13-1.8l1.1-0.6C993.5,436.7,996.3,436.7,998.8,435.7z"/>
			</g>
			<g id="Group_272">
				<path id="Path_1111" class="st6" d="M1004.8,437.9c0.2,0.1,0.3,0.2,0.2,0.4c0,0.1-0.1,0.2-0.2,0.2c-0.3,0.2-0.7,0.2-1.1,0
					l-0.9-0.5l-4.2-2.4c-2.5,1-5.3,1-7.8,0l-1.1,0.6l-2.3,1.3c-0.3,0.2-0.7,0.2-1.1,0c-2.1-1.1-4.6-1.1-6.8,0
					c-0.2,0.1-0.3,0.1-0.5,0.1s-0.4,0-0.5-0.1l-5.5-3.2c-0.2-0.1-0.3-0.2-0.2-0.4c0-0.1,0.1-0.2,0.2-0.2c0.3-0.2,0.7-0.2,1.1,0
					l0.9,0.5l4.2,2.4c2.5-1,5.3-1,7.8,0l1.1-0.7l2.3-1.3c0.3-0.2,0.7-0.2,1.1,0c2.1,1.1,4.6,1.1,6.8,0c0.3-0.2,0.7-0.2,1.1,0
					L1004.8,437.9z"/>
			</g>
			<g id="Group_273">
				<path id="Path_1112" class="st5" d="M990.8,444.6l-6.2-1.5c0.8-0.1,1.7-0.3,2.5-0.7L990.8,444.6z"/>
			</g>
			<g id="Group_274">
				<path id="Path_1113" class="st6" d="M993.2,444.7c0.2,0.1,0.3,0.2,0.2,0.4c0,0.1-0.1,0.2-0.2,0.2c-0.3,0.2-0.7,0.2-1.1,0
					l-1.3-0.7l-3.7-2.2c-0.8,0.3-1.6,0.6-2.5,0.7c-2,0.3-4.1,0-5.9-1c-0.2-0.1-0.3-0.2-0.2-0.4c0-0.1,0.1-0.2,0.2-0.2
					c0.3-0.2,0.7-0.2,1.1,0c2.1,1.1,4.6,1.1,6.8,0c0.2-0.1,0.3-0.1,0.5-0.1s0.4,0,0.5,0.1L993.2,444.7z"/>
			</g>
		</g>
		<g id="Group_276">
			<path id="Path_1114" class="st5" d="M983.4,439.5c0.1,0.1,0.1,0.2,0,0.2l0.5,0.3l-0.5-0.3c-0.1,0.1-0.3,0.1-0.4,0
				c-0.1-0.1-0.1-0.2,0-0.2C983.1,439.4,983.3,439.4,983.4,439.5z"/>
		</g>
		<g id="Group_277">
			<path id="Path_1115" class="st6" d="M984.5,438.8c0.4,0.1,0.6,0.6,0.5,1c-0.1,0.2-0.3,0.4-0.5,0.5c-0.8,0.4-1.8,0.4-2.6,0
				c-0.4-0.1-0.6-0.6-0.5-1c0.1-0.2,0.3-0.4,0.5-0.5C982.7,438.4,983.7,438.4,984.5,438.8z M983,439.7c0.1,0.1,0.3,0.1,0.4,0
				c0.1-0.1,0.1-0.2,0-0.2c-0.1-0.1-0.3-0.1-0.4,0C982.9,439.5,982.9,439.6,983,439.7"/>
		</g>
	</g>
	<g id="Group_291">
		<g id="Group_279">
			<path id="Path_1116" class="st5" d="M1014.4,457.1l-4.2-2.4l13,1.8l-1.1,0.7C1019.7,456.1,1016.9,456.1,1014.4,457.1z"/>
		</g>
		<g id="Group_288">
			<g id="Group_280">
				<path id="Path_1117" class="st5" d="M1028.5,449.6c-0.8,0.1-1.7,0.3-2.4,0.7l-3.7-2.2L1028.5,449.6z"/>
			</g>
			<g id="Group_281">
				<path id="Path_1118" class="st6" d="M1034.4,450.6c0.2,0.1,0.3,0.2,0.2,0.4c0,0.1-0.1,0.2-0.2,0.2c-0.3,0.2-0.7,0.2-1.1,0
					c-1-0.6-2.2-0.8-3.4-0.8c-1.2,0-2.3,0.3-3.4,0.8c-0.3,0.2-0.7,0.2-1.1,0l-5.5-3.2c-0.2-0.1-0.3-0.2-0.2-0.4
					c0-0.1,0.1-0.2,0.2-0.2c0.3-0.2,0.7-0.2,1.1,0l1.3,0.7l3.7,2.2c0.8-0.3,1.6-0.6,2.4-0.7C1030.5,449.3,1032.6,449.7,1034.4,450.6
					z"/>
			</g>
			<g id="Group_282">
				<path id="Path_1119" class="st5" d="M1030.2,453.1c0.1,0.1,0.1,0.2,0,0.3c-0.1,0.1-0.3,0.1-0.4,0s-0.1-0.2,0-0.3l-0.5-0.3
					l0.5,0.3C1029.9,453,1030.1,453,1030.2,453.1z"/>
			</g>
			<g id="Group_283">
				<path id="Path_1120" class="st6" d="M1031.3,452.4c0.7,0.4,0.7,1.1,0,1.5c-0.8,0.4-1.8,0.4-2.6,0c-0.4-0.1-0.6-0.6-0.5-1
					c0.1-0.2,0.3-0.4,0.5-0.5l0.5,0.3l0.5,0.3c-0.1,0.1-0.1,0.2,0,0.3c0.1,0.1,0.3,0.1,0.4,0s0.1-0.2,0-0.3c-0.1-0.1-0.3-0.1-0.4,0
					l-0.5-0.3l-0.5-0.3C1029.5,452,1030.5,452,1031.3,452.4z"/>
			</g>
			<g id="Group_284">
				<path id="Path_1121" class="st5" d="M1033.9,456l4.2,2.4l-13-1.8l1.1-0.6C1028.6,457.1,1031.4,457.1,1033.9,456z"/>
			</g>
			<g id="Group_285">
				<path id="Path_1122" class="st6" d="M1040,458.3c0.2,0.1,0.3,0.2,0.2,0.4c0,0.1-0.1,0.2-0.2,0.2c-0.3,0.2-0.7,0.2-1.1,0
					l-0.9-0.5l-4.2-2.4c-2.5,1-5.3,1-7.8,0l-1.1,0.6l-2.3,1.3c-0.2,0.1-0.3,0.1-0.5,0.1s-0.4,0-0.5-0.1c-2.1-1.1-4.6-1.1-6.8,0
					c-0.2,0.1-0.3,0.1-0.5,0.1s-0.4,0-0.5-0.1l-5.5-3.2c-0.2-0.1-0.3-0.2-0.2-0.4c0-0.1,0.1-0.2,0.2-0.2c0.3-0.2,0.7-0.2,1.1,0
					l0.9,0.5l4.2,2.4c2.5-1,5.3-1,7.8,0l1.1-0.7l2.3-1.3c0.3-0.2,0.7-0.2,1.1,0c2.1,1.1,4.6,1.1,6.8,0c0.3-0.2,0.7-0.2,1.1,0
					L1040,458.3z"/>
			</g>
			<g id="Group_286">
				<path id="Path_1123" class="st5" d="M1026,465l-6.2-1.5c0.8-0.1,1.7-0.3,2.5-0.7L1026,465z"/>
			</g>
			<g id="Group_287">
				<path id="Path_1124" class="st6" d="M1028.3,465.1c0.2,0.1,0.3,0.2,0.2,0.4c0,0.1-0.1,0.2-0.2,0.2c-0.3,0.2-0.7,0.2-1.1,0
					l-1.3-0.7l-3.7-2.2c-0.8,0.3-1.6,0.6-2.5,0.7c-2,0.3-4.1,0-5.9-1c-0.2-0.1-0.3-0.2-0.2-0.4c0-0.1,0.1-0.2,0.2-0.2
					c0.3-0.2,0.7-0.2,1.1,0c2.1,1.1,4.6,1.1,6.8,0c0.3-0.2,0.7-0.2,1.1,0L1028.3,465.1z"/>
			</g>
		</g>
		<g id="Group_289">
			<path id="Path_1125" class="st5" d="M1018.5,459.8c0.1,0,0.1,0.1,0.1,0.2c0,0,0,0.1-0.1,0.1l0.5,0.3l-0.5-0.3
				c-0.1,0.1-0.3,0.1-0.4,0c-0.1-0.1-0.1-0.2,0-0.3C1018.2,459.8,1018.4,459.8,1018.5,459.8z"/>
		</g>
		<g id="Group_290">
			<path id="Path_1126" class="st6" d="M1019.6,459.2c0.4,0.1,0.6,0.6,0.5,1c-0.1,0.2-0.3,0.4-0.5,0.5c-0.8,0.4-1.8,0.4-2.6,0
				c-0.4-0.1-0.6-0.6-0.5-1c0.1-0.2,0.3-0.4,0.5-0.5C1017.8,458.8,1018.8,458.8,1019.6,459.2z M1018.1,460.1c0.1,0.1,0.3,0.1,0.4,0
				c0.1-0.1,0.1-0.2,0-0.3c-0.1-0.1-0.3-0.1-0.4,0C1018,459.9,1018,460,1018.1,460.1"/>
		</g>
	</g>
	<g id="Group_304">
		<g id="Group_292">
			<path id="Path_1127" class="st5" d="M1049.5,477.5l-4.2-2.4l13,1.8l-1.1,0.7C1054.8,476.5,1052,476.5,1049.5,477.5z"/>
		</g>
		<g id="Group_301">
			<g id="Group_293">
				<path id="Path_1128" class="st5" d="M1063.7,470c-0.8,0.1-1.7,0.3-2.4,0.7l-3.7-2.2L1063.7,470z"/>
			</g>
			<g id="Group_294">
				<path id="Path_1129" class="st6" d="M1069.5,471c0.2,0.1,0.3,0.2,0.2,0.4c0,0.1-0.1,0.2-0.2,0.2c-0.3,0.2-0.7,0.2-1.1,0
					c-1-0.6-2.2-0.8-3.4-0.8c-1.2,0-2.3,0.3-3.4,0.8c-0.3,0.2-0.7,0.2-1.1,0l-5.5-3.2c-0.2-0.1-0.3-0.2-0.2-0.4
					c0-0.1,0.1-0.2,0.2-0.2c0.3-0.2,0.7-0.2,1.1,0l1.3,0.7l3.7,2.2c0.8-0.3,1.6-0.6,2.4-0.7C1065.7,469.7,1067.7,470.1,1069.5,471z"
					/>
			</g>
			<g id="Group_295">
				<path id="Path_1130" class="st5" d="M1065.3,473.5c0.1,0.1,0.1,0.2,0,0.2c-0.1,0.1-0.3,0.1-0.4,0s-0.1-0.2,0-0.2l-0.5-0.3
					l0.5,0.3C1065,473.4,1065.2,473.4,1065.3,473.5z"/>
			</g>
			<g id="Group_296">
				<path id="Path_1131" class="st6" d="M1066.4,472.8c0.7,0.4,0.7,1.1,0,1.5c-0.8,0.4-1.8,0.4-2.6,0c-0.4-0.1-0.6-0.6-0.5-1
					c0.1-0.2,0.3-0.4,0.5-0.5l0.5,0.3l0.5,0.3c-0.1,0.1-0.1,0.2,0,0.2c0.1,0.1,0.3,0.1,0.4,0s0.1-0.2,0-0.2c-0.1-0.1-0.3-0.1-0.4,0
					l-0.5-0.3l-0.5-0.3C1064.6,472.4,1065.6,472.4,1066.4,472.8z"/>
			</g>
			<g id="Group_297">
				<path id="Path_1132" class="st5" d="M1069,476.4l4.2,2.4l-13-1.8l1.1-0.6C1063.7,477.5,1066.5,477.5,1069,476.4z"/>
			</g>
			<g id="Group_298">
				<path id="Path_1133" class="st6" d="M1075.1,478.7c0.2,0.1,0.3,0.2,0.2,0.4c0,0.1-0.1,0.2-0.2,0.2c-0.3,0.2-0.7,0.2-1.1,0
					l-0.9-0.5l-4.2-2.4c-2.5,1-5.3,1-7.8,0l-1.1,0.6l-2.3,1.3c-0.3,0.2-0.7,0.2-1.1,0c-2.1-1.1-4.6-1.1-6.8,0
					c-0.2,0.1-0.3,0.1-0.5,0.1s-0.4,0-0.5-0.1l-5.5-3.2c-0.2-0.1-0.3-0.2-0.2-0.4c0-0.1,0.1-0.2,0.2-0.2c0.3-0.2,0.7-0.2,1.1,0
					l0.9,0.5l4.2,2.4c2.5-1,5.3-1,7.8,0l1.1-0.7l2.3-1.3c0.3-0.2,0.7-0.2,1.1,0c2.1,1.1,4.6,1.1,6.8,0c0.3-0.2,0.7-0.2,1.1,0
					L1075.1,478.7z"/>
			</g>
			<g id="Group_299">
				<path id="Path_1134" class="st5" d="M1061.1,485.4l-6.2-1.5c0.8-0.1,1.7-0.3,2.5-0.7L1061.1,485.4z"/>
			</g>
			<g id="Group_300">
				<path id="Path_1135" class="st6" d="M1063.4,485.5c0.2,0.1,0.3,0.2,0.2,0.4c0,0.1-0.1,0.2-0.2,0.2c-0.3,0.2-0.7,0.2-1.1,0
					l-1.3-0.7l-3.7-2.2c-0.8,0.3-1.6,0.6-2.5,0.7c-2,0.3-4.1,0-5.9-1c-0.2-0.1-0.3-0.2-0.2-0.4c0-0.1,0.1-0.2,0.2-0.2
					c0.3-0.2,0.7-0.2,1.1,0c2.1,1.1,4.6,1.1,6.8,0c0.3-0.2,0.7-0.2,1.1,0L1063.4,485.5z"/>
			</g>
		</g>
		<g id="Group_302">
			<path id="Path_1136" class="st5" d="M1053.6,480.2c0.1,0.1,0.1,0.2,0,0.3l0.5,0.3l-0.5-0.3c-0.1,0.1-0.3,0.1-0.4,0
				s-0.1-0.2,0-0.3C1053.3,480.2,1053.5,480.2,1053.6,480.2z"/>
		</g>
		<g id="Group_303">
			<path id="Path_1137" class="st6" d="M1054.7,479.6c0.4,0.1,0.6,0.6,0.5,1c-0.1,0.2-0.3,0.4-0.5,0.5c-0.8,0.4-1.8,0.4-2.6,0
				c-0.4-0.1-0.6-0.6-0.5-1c0.1-0.2,0.3-0.4,0.5-0.5C1052.9,479.2,1053.9,479.2,1054.7,479.6z M1053.2,480.5c0.1,0.1,0.3,0.1,0.4,0
				s0.1-0.2,0-0.3c-0.1-0.1-0.3-0.1-0.4,0C1053.1,480.3,1053.1,480.4,1053.2,480.5"/>
		</g>
	</g>
	<g id="Group_317">
		<g id="Group_305">
			<path id="Path_1138" class="st5" d="M1006.3,421l-4.2-2.4l13,1.8l-1.1,0.7C1011.5,420,1008.8,420,1006.3,421z"/>
		</g>
		<g id="Group_314">
			<g id="Group_306">
				<path id="Path_1139" class="st5" d="M1020.4,413.5c-0.8,0.1-1.7,0.3-2.4,0.7l-3.7-2.2L1020.4,413.5z"/>
			</g>
			<g id="Group_307">
				<path id="Path_1140" class="st6" d="M1026.3,414.5c0.2,0.1,0.3,0.2,0.2,0.4c0,0.1-0.1,0.2-0.2,0.2c-0.3,0.2-0.7,0.2-1.1,0
					c-1-0.6-2.2-0.8-3.4-0.8s-2.3,0.3-3.4,0.8c-0.3,0.2-0.7,0.2-1.1,0l-5.5-3.2c-0.2-0.1-0.3-0.2-0.2-0.4c0-0.1,0.1-0.2,0.2-0.2
					c0.3-0.2,0.7-0.2,1.1,0l1.3,0.7l3.7,2.2c0.8-0.3,1.6-0.6,2.4-0.7C1022.4,413.2,1024.5,413.6,1026.3,414.5z"/>
			</g>
			<g id="Group_308">
				<path id="Path_1141" class="st5" d="M1022.1,416.9c0.1,0.1,0.1,0.2,0,0.3c-0.1,0.1-0.3,0.1-0.4,0c-0.1-0.1-0.1-0.2,0-0.3
					l-0.5-0.3l0.5,0.3C1021.8,416.9,1021.9,416.9,1022.1,416.9z"/>
			</g>
			<g id="Group_309">
				<path id="Path_1142" class="st6" d="M1023.1,416.3c0.7,0.4,0.7,1.1,0,1.5c-0.8,0.4-1.8,0.4-2.6,0c-0.4-0.1-0.6-0.6-0.5-1
					c0.1-0.2,0.3-0.4,0.5-0.5l0.5,0.3l0.5,0.3c-0.1,0.1-0.1,0.2,0,0.3c0.1,0.1,0.3,0.1,0.4,0c0.1-0.1,0.1-0.2,0-0.3
					c-0.1-0.1-0.3-0.1-0.4,0l-0.5-0.3l-0.5-0.3C1021.4,415.9,1022.3,415.9,1023.1,416.3z"/>
			</g>
			<g id="Group_310">
				<path id="Path_1143" class="st5" d="M1025.7,419.9l4.2,2.4l-13-1.8l1.1-0.6C1020.5,421,1023.3,421,1025.7,419.9z"/>
			</g>
			<g id="Group_311">
				<path id="Path_1144" class="st6" d="M1031.8,422.2c0.3,0.2,0.3,0.4,0,0.6s-0.7,0.2-1.1,0l-0.9-0.5l-4.2-2.4c-2.5,1-5.3,1-7.8,0
					l-1.1,0.6l-2.3,1.3c-0.3,0.2-0.7,0.2-1.1,0c-2.1-1.1-4.6-1.1-6.8,0c-0.2,0.1-0.3,0.1-0.5,0.1s-0.4,0-0.5-0.1l-5.5-3.2
					c-0.2-0.1-0.3-0.2-0.2-0.4c0-0.1,0.1-0.2,0.2-0.2c0.3-0.2,0.7-0.2,1.1,0l0.9,0.5l4.2,2.4c2.5-1,5.3-1,7.8,0l1.1-0.7l2.3-1.3
					c0.2-0.1,0.3-0.1,0.5-0.1s0.4,0,0.5,0.1c2.1,1.1,4.6,1.1,6.8,0c0.3-0.2,0.7-0.2,1.1,0L1031.8,422.2z"/>
			</g>
			<g id="Group_312">
				<path id="Path_1145" class="st5" d="M1017.8,428.9l-6.2-1.5c0.8-0.1,1.7-0.3,2.5-0.7L1017.8,428.9z"/>
			</g>
			<g id="Group_313">
				<path id="Path_1146" class="st6" d="M1020.1,429c0.2,0.1,0.3,0.2,0.2,0.4c0,0.1-0.1,0.2-0.2,0.2c-0.3,0.2-0.7,0.2-1.1,0
					l-1.3-0.7l-3.7-2.2c-0.8,0.3-1.6,0.6-2.5,0.7c-2,0.3-4.1,0-5.9-1c-0.2-0.1-0.3-0.2-0.2-0.4c0-0.1,0.1-0.2,0.2-0.2
					c0.3-0.2,0.7-0.2,1.1,0c2.1,1.1,4.6,1.1,6.8,0c0.2-0.1,0.3-0.1,0.5-0.1s0.4,0,0.5,0.1L1020.1,429z"/>
			</g>
		</g>
		<g id="Group_315">
			<path id="Path_1147" class="st5" d="M1010.4,423.7c0.1,0.1,0.1,0.2,0,0.3l0.5,0.3l-0.5-0.3c-0.1,0.1-0.3,0.1-0.4,0
				c-0.1-0.1-0.1-0.2,0-0.3C1010.1,423.7,1010.3,423.7,1010.4,423.7z"/>
		</g>
		<g id="Group_316">
			<path id="Path_1148" class="st6" d="M1011.4,423.1c0.4,0.1,0.6,0.6,0.5,1c-0.1,0.2-0.3,0.4-0.5,0.5c-0.8,0.4-1.8,0.4-2.6,0
				c-0.4-0.1-0.6-0.6-0.5-1c0.1-0.2,0.3-0.4,0.5-0.5C1009.7,422.7,1010.6,422.7,1011.4,423.1z M1010,424c0.1,0.1,0.3,0.1,0.4,0
				c0.1-0.1,0.1-0.2,0-0.3c-0.1-0.1-0.3-0.1-0.4,0C1009.8,423.8,1009.8,423.9,1010,424"/>
		</g>
	</g>
	<g id="Group_330">
		<g id="Group_318">
			<path id="Path_1149" class="st5" d="M1041.4,441.4l-4.2-2.4l13,1.8l-1.1,0.7C1046.7,440.4,1043.9,440.4,1041.4,441.4z"/>
		</g>
		<g id="Group_327">
			<g id="Group_319">
				<path id="Path_1150" class="st5" d="M1055.5,433.9c-0.8,0.1-1.7,0.3-2.4,0.7l-3.7-2.2L1055.5,433.9z"/>
			</g>
			<g id="Group_320">
				<path id="Path_1151" class="st6" d="M1061.4,434.9c0.2,0.1,0.3,0.2,0.2,0.4c0,0.1-0.1,0.2-0.2,0.2c-0.3,0.2-0.7,0.2-1.1,0
					c-1-0.6-2.2-0.8-3.4-0.8c-1.2,0-2.3,0.3-3.4,0.8c-0.2,0.1-0.3,0.1-0.5,0.1s-0.4,0-0.5-0.1l-5.5-3.2c-0.2-0.1-0.3-0.2-0.2-0.4
					c0-0.1,0.1-0.2,0.2-0.2c0.3-0.2,0.7-0.2,1.1,0l1.3,0.7l3.7,2.2c0.8-0.3,1.6-0.6,2.4-0.7C1057.5,433.6,1059.6,434,1061.4,434.9z"
					/>
			</g>
			<g id="Group_321">
				<path id="Path_1152" class="st5" d="M1057.2,437.3c0.1,0.1,0.1,0.2,0,0.3c-0.1,0.1-0.3,0.1-0.4,0s-0.1-0.2,0-0.3l-0.5-0.3
					l0.5,0.3C1056.9,437.3,1057,437.3,1057.2,437.3z"/>
			</g>
			<g id="Group_322">
				<path id="Path_1153" class="st6" d="M1058.2,436.7c0.7,0.4,0.7,1.1,0,1.5c-0.8,0.4-1.8,0.4-2.6,0c-0.4-0.1-0.6-0.6-0.5-1
					c0.1-0.2,0.3-0.4,0.5-0.5l0.5,0.3l0.5,0.3c-0.1,0.1-0.1,0.2,0,0.3c0.1,0.1,0.3,0.1,0.4,0s0.1-0.2,0-0.3c-0.1-0.1-0.3-0.1-0.4,0
					l-0.5-0.3l-0.5-0.3C1056.5,436.3,1057.4,436.3,1058.2,436.7z"/>
			</g>
			<g id="Group_323">
				<path id="Path_1154" class="st5" d="M1060.9,440.3l4.2,2.4l-13-1.8l1.1-0.6C1055.6,441.4,1058.4,441.4,1060.9,440.3z"/>
			</g>
			<g id="Group_324">
				<path id="Path_1155" class="st6" d="M1066.9,442.6c0.2,0.1,0.3,0.2,0.2,0.4c0,0.1-0.1,0.2-0.2,0.2c-0.3,0.2-0.7,0.2-1.1,0
					l-0.9-0.5l-4.2-2.4c-2.5,1-5.3,1-7.8,0l-1.1,0.6l-2.3,1.3c-0.3,0.2-0.7,0.2-1.1,0c-2.1-1.1-4.6-1.1-6.8,0
					c-0.2,0.1-0.3,0.1-0.5,0.1s-0.4,0-0.5-0.1l-5.5-3.2c-0.2-0.1-0.3-0.2-0.2-0.4c0-0.1,0.1-0.2,0.2-0.2c0.3-0.2,0.7-0.2,1.1,0
					l0.9,0.5l4.2,2.4c2.5-1,5.3-1,7.8,0l1.1-0.7l2.3-1.3c0.3-0.2,0.7-0.2,1.1,0c2.1,1.1,4.6,1.1,6.8,0c0.3-0.2,0.7-0.2,1.1,0
					L1066.9,442.6z"/>
			</g>
			<g id="Group_325">
				<path id="Path_1156" class="st5" d="M1052.9,449.3l-6.2-1.5c0.8-0.1,1.7-0.3,2.5-0.7L1052.9,449.3z"/>
			</g>
			<g id="Group_326">
				<path id="Path_1157" class="st6" d="M1055.3,449.4c0.2,0.1,0.3,0.2,0.2,0.4c0,0.1-0.1,0.2-0.2,0.2c-0.3,0.2-0.7,0.2-1.1,0
					l-1.3-0.7l-3.7-2.2c-0.8,0.3-1.6,0.6-2.4,0.7c-2,0.3-4.1,0-5.9-1c-0.2-0.1-0.3-0.2-0.2-0.4c0-0.1,0.1-0.2,0.2-0.2
					c0.3-0.2,0.7-0.2,1.1,0c2.1,1.1,4.6,1.1,6.8,0c0.3-0.2,0.7-0.2,1.1,0L1055.3,449.4z"/>
			</g>
		</g>
		<g id="Group_328">
			<path id="Path_1158" class="st5" d="M1045.5,444.1c0.1,0.1,0.1,0.2,0,0.3l0.5,0.3l-0.5-0.3c-0.1,0.1-0.3,0.1-0.4,0
				s-0.1-0.2,0-0.3C1045.2,444.1,1045.4,444.1,1045.5,444.1z"/>
		</g>
		<g id="Group_329">
			<path id="Path_1159" class="st6" d="M1046.6,443.5c0.4,0.1,0.6,0.6,0.5,1c-0.1,0.2-0.3,0.4-0.5,0.5c-0.8,0.4-1.8,0.4-2.6,0
				c-0.4-0.1-0.6-0.6-0.5-1c0.1-0.2,0.3-0.4,0.5-0.5C1044.8,443.1,1045.8,443.1,1046.6,443.5z M1045.1,444.4c0.1,0.1,0.3,0.1,0.4,0
				s0.1-0.2,0-0.2c-0.1-0.1-0.3-0.1-0.4,0C1044.9,444.2,1045,444.3,1045.1,444.4"/>
		</g>
	</g>
	<g id="Group_343">
		<g id="Group_331">
			<path id="Path_1160" class="st5" d="M1076.5,461.8l-4.2-2.4l13,1.8l-1.1,0.7C1081.8,460.8,1079,460.8,1076.5,461.8z"/>
		</g>
		<g id="Group_340">
			<g id="Group_332">
				<path id="Path_1161" class="st5" d="M1090.6,454.3c-0.8,0.1-1.7,0.3-2.4,0.7l-3.7-2.2L1090.6,454.3z"/>
			</g>
			<g id="Group_333">
				<path id="Path_1162" class="st6" d="M1096.5,455.3c0.2,0.1,0.3,0.2,0.2,0.4c0,0.1-0.1,0.2-0.2,0.2c-0.3,0.2-0.7,0.2-1.1,0
					c-1-0.6-2.2-0.8-3.4-0.8c-1.2,0-2.3,0.3-3.4,0.8c-0.3,0.2-0.7,0.2-1.1,0l-5.5-3.2c-0.2-0.1-0.3-0.2-0.2-0.4
					c0-0.1,0.1-0.2,0.2-0.2c0.3-0.2,0.7-0.2,1.1,0l1.3,0.7l3.7,2.2c0.8-0.3,1.6-0.6,2.4-0.7C1092.6,454,1094.7,454.4,1096.5,455.3z"
					/>
			</g>
			<g id="Group_334">
				<path id="Path_1163" class="st5" d="M1092.3,457.7c0.1,0,0.1,0.1,0.1,0.2c0,0,0,0.1-0.1,0.1c-0.1,0.1-0.3,0.1-0.4,0
					s-0.1-0.2,0-0.3l-0.5-0.3l0.5,0.3C1092,457.7,1092.2,457.7,1092.3,457.7z"/>
			</g>
			<g id="Group_335">
				<path id="Path_1164" class="st6" d="M1093.4,457.1c0.7,0.4,0.7,1.1,0,1.5c-0.8,0.4-1.8,0.4-2.6,0c-0.4-0.1-0.6-0.6-0.5-1
					c0.1-0.2,0.3-0.4,0.5-0.5l0.5,0.3l0.5,0.3c-0.1,0.1-0.1,0.2,0,0.3c0.1,0.1,0.3,0.1,0.4,0c0.1,0,0.1-0.1,0.1-0.2
					c0,0,0-0.1-0.1-0.1c-0.1-0.1-0.3-0.1-0.4,0l-0.5-0.3l-0.5-0.3C1091.6,456.7,1092.5,456.7,1093.4,457.1z"/>
			</g>
			<g id="Group_336">
				<path id="Path_1165" class="st5" d="M1096,460.7l4.2,2.4l-13-1.8l1.1-0.6C1090.7,461.8,1093.5,461.8,1096,460.7z"/>
			</g>
			<g id="Group_337">
				<path id="Path_1166" class="st6" d="M1102,463c0.2,0.1,0.3,0.2,0.2,0.4c0,0.1-0.1,0.2-0.2,0.2c-0.3,0.2-0.7,0.2-1.1,0l-0.9-0.5
					l-4.2-2.4c-2.5,1-5.3,1-7.8,0l-1.1,0.6l-2.3,1.3c-0.3,0.2-0.7,0.2-1.1,0c-2.1-1.1-4.6-1.1-6.8,0c-0.2,0.1-0.3,0.1-0.5,0.1
					s-0.4,0-0.5-0.1l-5.5-3.2c-0.3-0.2-0.3-0.4,0-0.6s0.7-0.2,1.1,0l0.9,0.5l4.2,2.4c2.5-1,5.3-1,7.8,0l1.1-0.7l2.3-1.3
					c0.2-0.1,0.3-0.1,0.5-0.1s0.4,0,0.5,0.1c2.1,1.1,4.6,1.1,6.8,0c0.3-0.2,0.7-0.2,1.1,0L1102,463z"/>
			</g>
			<g id="Group_338">
				<path id="Path_1167" class="st5" d="M1088,469.7l-6.2-1.5c0.8-0.1,1.7-0.3,2.5-0.7L1088,469.7z"/>
			</g>
			<g id="Group_339">
				<path id="Path_1168" class="st6" d="M1090.4,469.8c0.2,0.1,0.3,0.2,0.2,0.4c0,0.1-0.1,0.2-0.2,0.2c-0.3,0.2-0.7,0.2-1.1,0
					l-1.3-0.7l-3.7-2.2c-0.8,0.3-1.6,0.6-2.5,0.7c-2,0.3-4.1,0-5.9-1c-0.3-0.2-0.3-0.4,0-0.6s0.7-0.2,1.1,0c2.1,1.1,4.6,1.1,6.8,0
					c0.3-0.2,0.7-0.2,1.1,0L1090.4,469.8z"/>
			</g>
		</g>
		<g id="Group_341">
			<path id="Path_1169" class="st5" d="M1080.6,464.5c0.1,0.1,0.1,0.2,0,0.3l0.5,0.3l-0.5-0.3c-0.1,0.1-0.3,0.1-0.4,0
				s-0.1-0.2,0-0.3C1080.3,464.5,1080.5,464.5,1080.6,464.5z"/>
		</g>
		<g id="Group_342">
			<path id="Path_1170" class="st6" d="M1081.7,463.9c0.4,0.1,0.6,0.6,0.5,1c-0.1,0.2-0.3,0.4-0.5,0.5c-0.8,0.4-1.8,0.4-2.6,0
				c-0.4-0.1-0.6-0.6-0.5-1c0.1-0.2,0.3-0.4,0.5-0.5C1079.9,463.5,1080.9,463.5,1081.7,463.9z M1080.2,464.8c0.1,0.1,0.3,0.1,0.4,0
				s0.1-0.2,0-0.3c-0.1-0.1-0.3-0.1-0.4,0C1080.1,464.6,1080.1,464.7,1080.2,464.8"/>
		</g>
	</g>
</g>
</svg>
