<?xml version="1.0" encoding="utf-8"?>
<!-- Generator: Adobe Illustrator 25.2.3, SVG Export Plug-In . SVG Version: 6.00 Build 0)  -->
<svg version="1.1" id="Layer_1" xmlns="http://www.w3.org/2000/svg" xmlns:xlink="http://www.w3.org/1999/xlink" x="0px" y="0px"
	 viewBox="0 0 250 320" style="enable-background:new 0 0 250 320;" xml:space="preserve">
<style type="text/css">
	.st0{fill:#EFF4F4;}
	.st1{fill:#FFFFFF;stroke:#292928;stroke-width:1.5;stroke-linecap:round;stroke-linejoin:round;}
	.st2{fill:none;stroke:#292928;stroke-width:1.5;stroke-linecap:round;stroke-linejoin:round;}
	.st3{fill:#292928;stroke:#292928;stroke-width:1.5;stroke-linecap:round;stroke-linejoin:round;}
	.st4{fill:none;stroke:#FFFFFF;stroke-width:1.5;stroke-linecap:round;stroke-linejoin:round;}
</style>
<circle class="st0" cx="125.5" cy="179.1" r="97.5"/>
<g id="icon_kipstegere" transform="translate(-276.913 -536.138)">
	<path id="Path_1210" class="st1" d="M409.4,738.7V809l6.8-3.9v-70.3L409.4,738.7z"/>
	<path id="Path_1211" class="st1" d="M463.4,707.9v70l6.8-3.9v-70L463.4,707.9z"/>
	<path id="Path_1212" class="st1" d="M409.4,738.7l-6.8-3.9V805l6.8,3.9V738.7z"/>
	<path id="Path_1213" class="st1" d="M335.2,750.4V766l6.8-3.9v-7.8L335.2,750.4z"/>
	<path id="Path_1214" class="st1" d="M335.2,766l-6.8-3.9v-70.2l6.8,3.9V766z"/>
	<path id="Path_1215" class="st1" d="M463.4,777.9l-6.8-3.9v-62.4l6.8-3.8V777.9z"/>
	<path id="Path_1216" class="st1" d="M416.2,734.8v54.7l47.2-27.1V708L416.2,734.8z"/>
	<path id="Path_1217" class="st1" d="M335.2,695.7v54.6l67.4,39.1v-54.6L335.2,695.7z"/>
	<path id="Path_1218" class="st1" d="M308.1,688l108,62.4l74.4-42.7v-15.6l-74.4,42.6l-108-62.4V688z"/>
	<path id="Path_1219" class="st1" d="M308.1,672.4l108,62.4l74.4-42.7l-108.1-62.4L308.1,672.4z"/>
	<path id="Path_1220" class="st1" d="M321.6,672.5l94.7,54.6l61.3-35.1l-94.7-54.7L321.6,672.5z"/>
	<line id="Line_80" class="st2" x1="382.9" y1="637.3" x2="382.9" y2="653.8"/>
	<path id="Path_1221" class="st1" d="M463.4,699.9l-80.5-46.1l-48.1,26.3"/>
	<path id="Path_1222" class="st1" d="M362.2,695.9l3,6.1l13.4,7.8l10.6,1.7L362.2,695.9z"/>
	<g id="Group_365">
		<path id="Path_1223" class="st3" d="M386.6,721.7l-14.1-8.1v7.8l14.1,8.1V721.7z"/>
		<path id="Path_1224" class="st4" d="M377.8,719.8L377.8,719.8c0,0.8-0.6,1.4-1.3,1.4c-0.2,0-0.5-0.1-0.7-0.2l0,0
			c-0.6-0.4-1-1-1-1.7l0,0c0-0.7,0.6-1.3,1.3-1.3c0.2,0,0.5,0.1,0.7,0.2h0.1C377.4,718.5,377.8,719.1,377.8,719.8z"/>
		<path id="Path_1225" class="st4" d="M383.9,723.3L383.9,723.3c0,0.8-0.6,1.4-1.3,1.4c-0.2,0-0.5-0.1-0.7-0.2l0,0
			c-0.6-0.4-1-1-1-1.7l0,0c0-0.7,0.6-1.3,1.3-1.3c0.2,0,0.5,0.1,0.7,0.2h0.1C383.5,722,383.9,722.6,383.9,723.3z"/>
	</g>
	<g id="Group_366">
		<path id="Path_1226" class="st3" d="M406.9,733.5l-14.1-8.1v7.8l14.1,8.1V733.5z"/>
		<path id="Path_1227" class="st4" d="M398,731.6L398,731.6c0,0.8-0.6,1.4-1.3,1.4c-0.2,0-0.5-0.1-0.7-0.2l0,0c-0.6-0.4-1-1-1-1.7
			l0,0c0-0.7,0.6-1.3,1.3-1.3c0.2,0,0.5,0.1,0.7,0.2h0.1C397.7,730.3,398,730.9,398,731.6z"/>
		<path id="Path_1228" class="st4" d="M404.2,735.1L404.2,735.1c0,0.8-0.6,1.4-1.3,1.4c-0.2,0-0.5-0.1-0.7-0.2l0,0
			c-0.6-0.4-1-1-1-1.7l0,0c0-0.7,0.6-1.3,1.3-1.3c0.2,0,0.5,0.1,0.7,0.2h0.1C403.8,733.9,404.2,734.5,404.2,735.1z"/>
	</g>
	<g id="Group_367">
		<path id="Path_1229" class="st3" d="M331.7,690.1l-14.1-8.1v7.8l14.1,8.1V690.1z"/>
		<path id="Path_1230" class="st4" d="M322.9,688.2L322.9,688.2c0,0.8-0.6,1.4-1.3,1.4c-0.2,0-0.5-0.1-0.7-0.2l0,0
			c-0.6-0.4-1-1-1-1.7l0,0c0-0.7,0.6-1.3,1.3-1.3c0.2,0,0.5,0.1,0.7,0.2h0.1C322.5,686.9,322.9,687.5,322.9,688.2z"/>
		<path id="Path_1231" class="st4" d="M329,691.8L329,691.8c0,0.8-0.6,1.4-1.3,1.4c-0.2,0-0.5-0.1-0.7-0.2l0,0c-0.6-0.4-1-1-1-1.7
			l0,0c0-0.7,0.6-1.3,1.3-1.3c0.2,0,0.5,0.1,0.7,0.2h0.1C328.6,690.5,329,691.1,329,691.8z"/>
	</g>
	<g id="Group_368">
		<path id="Path_1232" class="st3" d="M352,701.9l-14.1-8.1v7.8l14.1,8.1V701.9z"/>
		<path id="Path_1233" class="st4" d="M343.1,700.1L343.1,700.1c0,0.8-0.6,1.4-1.3,1.4c-0.2,0-0.5-0.1-0.7-0.2l0,0
			c-0.6-0.4-1-1-1-1.7l0,0c0-0.7,0.6-1.3,1.3-1.3c0.2,0,0.5,0.1,0.7,0.2h0.1C342.8,698.8,343.1,699.4,343.1,700.1z"/>
		<path id="Path_1234" class="st4" d="M349.3,703.6L349.3,703.6c0,0.8-0.6,1.4-1.3,1.4c-0.2,0-0.5-0.1-0.7-0.2l0,0
			c-0.6-0.4-1-1-1-1.7l0,0c0-0.7,0.6-1.3,1.3-1.3c0.2,0,0.5,0.1,0.7,0.2h0.1C348.9,702.3,349.3,702.9,349.3,703.6z"/>
	</g>
	<path id="Path_1235" class="st1" d="M364.7,711.8L364.7,711.8c0,1.4-1,2.4-2.3,2.4c-0.4,0-0.8-0.1-1.1-0.3l0,0
		c-1.1-0.6-1.7-1.8-1.7-3l0,0c0-1.3,1-2.3,2.3-2.3c0.4,0,0.8,0.1,1.1,0.3l0.1,0.1C364.1,709.6,364.7,710.6,364.7,711.8z"/>
	<line id="Line_81" class="st2" x1="416.2" y1="734.8" x2="416.2" y2="750.4"/>
	<path id="Path_1236" class="st1" d="M450.2,668.6v-8.1L423,644.8v8.1L450.2,668.6z"/>
	<path id="Path_1237" class="st1" d="M452.7,670.1v-10.9l-2.5,1.3v8.1L452.7,670.1z"/>
	<path id="Path_1238" class="st1" d="M490.5,684.2l-20.4-58.7l-107.8-62.1l20.1,58.2L490.5,684.2z"/>
	<path id="Path_1239" class="st1" d="M362.3,563.3l3.1-2l108.1,62.4l20.3,58.5l-3.3,1.9l-20.4-58.7L362.3,563.3z"/>
	<line id="Line_82" class="st2" x1="470.1" y1="625.5" x2="473.6" y2="623.7"/>
</g>
</svg>
