<?xml version="1.0" encoding="utf-8"?>
<!-- Generator: Adobe Illustrator 25.2.3, SVG Export Plug-In . SVG Version: 6.00 Build 0)  -->
<svg version="1.1" id="Layer_1" xmlns="http://www.w3.org/2000/svg" xmlns:xlink="http://www.w3.org/1999/xlink" x="0px" y="0px"
	 viewBox="0 0 250 280" style="enable-background:new 0 0 250 280;" xml:space="preserve">
<style type="text/css">
	.st0{fill:#EFF4F4;}
	.st1{fill:#FFFFFF;stroke:#292928;stroke-width:1.5;stroke-linecap:round;stroke-linejoin:round;}
	.st2{fill:none;stroke:#292928;stroke-width:1.5;stroke-linecap:round;stroke-linejoin:round;}
	.st3{fill:#292928;stroke:#292928;stroke-width:1.5;stroke-linecap:round;stroke-linejoin:round;}
	.st4{fill:none;stroke:#FFFFFF;stroke-width:1.5;stroke-linecap:round;stroke-linejoin:round;}
	.st5{fill:#FFFFFF;}
	.st6{fill:#292928;}
</style>
<circle class="st0" cx="126.3" cy="140" r="97.5"/>
<text transform="matrix(1 0 0 1 960 555)" style="font-family:'MyriadPro-Regular'; font-size:12px;">  padding-top: 50px;</text>
<text transform="matrix(1 0 0 1 960 555)" style="font-family:'MyriadPro-Regular'; font-size:12px;">  padding-top: 50px;</text>
<g id="icon_kogeborde" transform="translate(-912.355 -318.478)">
	<path id="Path_1075" class="st1" d="M955.6,402.3V457l6.8-3.9v-46.8L955.6,402.3z"/>
	<path id="Path_1076" class="st1" d="M1050.3,496l-94.8-54.5l6.9-4v-7.8l20.3-11.7l67.6,39V496z"/>
	<path id="Path_1077" class="st1" d="M1057,445.3v70.2l6.8-3.9v-70.2L1057,445.3z"/>
	<path id="Path_1078" class="st1" d="M1117.8,417.4v63l6.8-3.9v-63L1117.8,417.4z"/>
	<path id="Path_1079" class="st2" d="M1057,515.5l-6.8-3.9v-70.2l6.8,3.9"/>
	<path id="Path_1080" class="st1" d="M1117.8,480.4l-6.8-3.9v-55.2l6.8-3.9V480.4z"/>
	<path id="Path_1081" class="st1" d="M955.6,457l-6.8-3.9v-70.2l6.8,3.9V457z"/>
	<path id="Path_1082" class="st1" d="M1050.3,441.4l-94.6-54.6v20.6l94.6,54.6V441.4z"/>
	<path id="Path_1083" class="st1" d="M1057,452.8l-114.9-66.3c1.8-4.3,4.9-8,8.8-10.5l64.7-37.3l114.9,66.3l-64.7,37.3
		C1061.8,444.7,1058.6,448.4,1057,452.8z"/>
	<path id="Path_1084" class="st1" d="M1130.6,405.1l-64.7,37.3c-4.1,2.4-7.2,6.1-8.8,10.5l73.6-42.8L1130.6,405.1z"/>
	<g id="Group_262">
		<path id="Path_1085" class="st1" d="M1016.5,346.2c0.7,0.2,30.3,17.7,30.3,17.7l-59.6,34.4l-30.4-17.2L1016.5,346.2z"/>
		<path id="Path_1086" class="st1" d="M989.3,366.7l-24.9,14.1l22.9,12.9l24.4-14.3L989.3,366.7z"/>
		<path id="Path_1087" class="st1" d="M1016.3,351l-24.9,14.1l22.9,12.9l24.4-14.3L1016.3,351z"/>
		<path id="Path_1088" class="st1" d="M1086.8,386.7c0.7,0.2,30.3,17.7,30.3,17.7l-59.6,34.4l-30.4-17.2L1086.8,386.7z"/>
		<path id="Path_1089" class="st1" d="M1051.7,366.3c0.7,0.2,30.3,17.7,30.3,17.7l-59.6,34.4L992,401.3L1051.7,366.3z"/>
		<path id="Path_1090" class="st1" d="M1059.6,407.2l-24.9,14.1l22.9,12.9l24.4-14.3L1059.6,407.2z"/>
		<path id="Path_1091" class="st1" d="M1086.6,391.5l-24.9,14.1l22.9,12.9l24.4-14.3L1086.6,391.5z"/>
		<path id="Path_1092" class="st1" d="M1024.4,387.1l-24.9,14.1l22.9,12.9l24.4-14.3L1024.4,387.1z"/>
		<path id="Path_1093" class="st1" d="M1051.4,371.3l-24.9,14.1l22.9,12.9l24.4-14.3L1051.4,371.3z"/>
	</g>
	<path id="Path_1094" class="st1" d="M1063.8,496l54.1-31.2l-6.8-4.1v-15.5l-13.5-7.7l-33.8,19.5V496z"/>
	<path id="Path_1095" class="st1" d="M1063.8,462l54.1-31.2v-13.4l-54.1,31.5V462z"/>
	<g id="Group_263">
		<path id="Path_1096" class="st3" d="M974.8,405.4l-14.1-8.1v7.8l14.1,8.1V405.4z"/>
		<path id="Path_1097" class="st4" d="M966,403.5L966,403.5c0,0.8-0.6,1.4-1.3,1.4c-0.2,0-0.5-0.1-0.7-0.2l0,0c-0.6-0.4-1-1-1-1.7
			l0,0c0-0.7,0.6-1.3,1.3-1.3c0.2,0,0.5,0.1,0.7,0.2l0.1,0C965.6,402.2,966,402.8,966,403.5z"/>
		<path id="Path_1098" class="st4" d="M972.1,407L972.1,407c0,0.8-0.6,1.4-1.3,1.4c-0.2,0-0.5-0.1-0.7-0.2l0,0c-0.6-0.4-1-1-1-1.7
			l0,0c0-0.7,0.6-1.3,1.3-1.3c0.2,0,0.5,0.1,0.7,0.2l0.1,0C971.8,405.7,972.1,406.4,972.1,407z"/>
	</g>
	<g id="Group_264">
		<path id="Path_1099" class="st3" d="M1008.4,424.8l-14.1-8.1v7.8l14.1,8.1V424.8z"/>
		<path id="Path_1100" class="st4" d="M999.6,422.9L999.6,422.9c0,0.8-0.6,1.4-1.3,1.4c-0.2,0-0.5-0.1-0.7-0.2l0,0
			c-0.6-0.4-1-1-1-1.7l0,0c0-0.7,0.6-1.3,1.3-1.3c0.2,0,0.5,0.1,0.7,0.2l0.1,0C999.2,421.6,999.6,422.3,999.6,422.9z"/>
		<path id="Path_1101" class="st4" d="M1005.7,426.5L1005.7,426.5c0,0.8-0.6,1.4-1.3,1.4c-0.2,0-0.5-0.1-0.7-0.2l0,0
			c-0.6-0.4-1-1-1-1.7l0,0c0-0.7,0.6-1.3,1.3-1.3c0.2,0,0.5,0.1,0.7,0.2l0.1,0C1005.4,425.2,1005.7,425.8,1005.7,426.5z"/>
	</g>
	<g id="Group_265">
		<path id="Path_1102" class="st3" d="M1043.9,445.5l-14.1-8.1v7.8l14.1,8.1L1043.9,445.5z"/>
		<path id="Path_1103" class="st4" d="M1035,443.6L1035,443.6c0,0.8-0.6,1.4-1.3,1.4c-0.2,0-0.5-0.1-0.7-0.2l0,0c-0.6-0.4-1-1-1-1.7
			l0,0c0-0.7,0.6-1.3,1.3-1.3c0.2,0,0.5,0.1,0.7,0.2l0.1,0C1034.7,442.3,1035,443,1035,443.6z"/>
		<path id="Path_1104" class="st4" d="M1041.2,447.2L1041.2,447.2c0,0.8-0.6,1.4-1.3,1.4c-0.2,0-0.5-0.1-0.7-0.2l0,0
			c-0.6-0.4-1-1-1-1.7l0,0c0-0.7,0.6-1.3,1.3-1.3c0.2,0,0.5,0.1,0.7,0.2l0.1,0C1040.8,445.9,1041.2,446.5,1041.2,447.2z"/>
	</g>
	<g id="Group_278">
		<g id="Group_266">
			<path id="Path_1105" class="st5" d="M978.4,380.7l-4.2-2.4l13,1.8l-1.1,0.7C983.7,379.7,980.9,379.7,978.4,380.7z"/>
		</g>
		<g id="Group_275">
			<g id="Group_267">
				<path id="Path_1106" class="st5" d="M992.5,373.2c-0.8,0.1-1.7,0.3-2.4,0.7l-3.7-2.2L992.5,373.2z"/>
			</g>
			<g id="Group_268">
				<path id="Path_1107" class="st6" d="M998.4,374.2c0.3,0.2,0.3,0.4,0,0.6c-0.3,0.2-0.7,0.2-1.1,0c-1-0.6-2.2-0.8-3.4-0.8
					c-1.2,0-2.3,0.3-3.4,0.8c-0.3,0.2-0.7,0.2-1.1,0l-5.5-3.2c-0.2-0.1-0.3-0.2-0.2-0.4c0-0.1,0.1-0.2,0.2-0.2
					c0.3-0.2,0.7-0.2,1.1,0l1.3,0.7l3.7,2.2c0.8-0.3,1.6-0.6,2.4-0.7C994.5,372.9,996.6,373.3,998.4,374.2z"/>
			</g>
			<g id="Group_269">
				<path id="Path_1108" class="st5" d="M994.2,376.7c0.1,0.1,0.1,0.2,0,0.3c-0.1,0.1-0.3,0.1-0.4,0c-0.1-0.1-0.1-0.2,0-0.3
					l-0.5-0.3l0.5,0.3C993.9,376.6,994.1,376.6,994.2,376.7z"/>
			</g>
			<g id="Group_270">
				<path id="Path_1109" class="st6" d="M995.2,376c0.7,0.4,0.7,1.1,0,1.5c-0.8,0.4-1.8,0.4-2.6,0c-0.4-0.1-0.6-0.6-0.5-1
					c0.1-0.2,0.3-0.4,0.5-0.5l0.5,0.3l0.5,0.3c-0.1,0.1-0.1,0.2,0,0.3c0.1,0.1,0.3,0.1,0.4,0c0.1-0.1,0.1-0.2,0-0.3
					c-0.1-0.1-0.3-0.1-0.4,0l-0.5-0.3l-0.5-0.3C993.5,375.6,994.4,375.6,995.2,376z"/>
			</g>
			<g id="Group_271">
				<path id="Path_1110" class="st5" d="M997.9,379.7l4.2,2.4l-13-1.8l1.1-0.6C992.6,380.7,995.4,380.7,997.9,379.7z"/>
			</g>
			<g id="Group_272">
				<path id="Path_1111" class="st6" d="M1003.9,381.9c0.2,0.1,0.3,0.2,0.2,0.4c0,0.1-0.1,0.2-0.2,0.2c-0.3,0.2-0.7,0.2-1.1,0
					l-0.9-0.5l-4.2-2.4c-2.5,1-5.3,1-7.8,0l-1.1,0.6l-2.3,1.3c-0.3,0.2-0.7,0.2-1.1,0c-2.1-1.1-4.6-1.1-6.8,0
					c-0.2,0.1-0.3,0.1-0.5,0.1c-0.2,0-0.4,0-0.5-0.1l-5.5-3.2c-0.2-0.1-0.3-0.2-0.2-0.4c0-0.1,0.1-0.2,0.2-0.2
					c0.3-0.2,0.7-0.2,1.1,0l0.9,0.5l4.2,2.4c2.5-1,5.3-1,7.8,0l1.1-0.7l2.3-1.3c0.3-0.2,0.7-0.2,1.1,0c2.1,1.1,4.6,1.1,6.8,0
					c0.3-0.2,0.7-0.2,1.1,0L1003.9,381.9z"/>
			</g>
			<g id="Group_273">
				<path id="Path_1112" class="st5" d="M989.9,388.6l-6.2-1.5c0.8-0.1,1.7-0.3,2.5-0.7L989.9,388.6z"/>
			</g>
			<g id="Group_274">
				<path id="Path_1113" class="st6" d="M992.3,388.7c0.2,0.1,0.3,0.2,0.2,0.4c0,0.1-0.1,0.2-0.2,0.2c-0.3,0.2-0.7,0.2-1.1,0
					l-1.3-0.7l-3.7-2.2c-0.8,0.3-1.6,0.6-2.5,0.7c-2,0.3-4.1,0-5.9-1c-0.2-0.1-0.3-0.2-0.2-0.4c0-0.1,0.1-0.2,0.2-0.2
					c0.3-0.2,0.7-0.2,1.1,0c2.1,1.1,4.6,1.1,6.8,0c0.2-0.1,0.3-0.1,0.5-0.1c0.2,0,0.4,0,0.5,0.1L992.3,388.7z"/>
			</g>
		</g>
		<g id="Group_276">
			<path id="Path_1114" class="st5" d="M982.5,383.5c0.1,0.1,0.1,0.2,0,0.2l0.5,0.3l-0.5-0.3c-0.1,0.1-0.3,0.1-0.4,0
				c-0.1-0.1-0.1-0.2,0-0.2C982.2,383.4,982.4,383.4,982.5,383.5z"/>
		</g>
		<g id="Group_277">
			<path id="Path_1115" class="st6" d="M983.6,382.8c0.4,0.1,0.6,0.6,0.5,1c-0.1,0.2-0.3,0.4-0.5,0.5c-0.8,0.4-1.8,0.4-2.6,0
				c-0.4-0.1-0.6-0.6-0.5-1c0.1-0.2,0.3-0.4,0.5-0.5C981.8,382.4,982.8,382.4,983.6,382.8z M982.1,383.7c0.1,0.1,0.3,0.1,0.4,0
				c0.1-0.1,0.1-0.2,0-0.2c-0.1-0.1-0.3-0.1-0.4,0C982,383.5,982,383.6,982.1,383.7"/>
		</g>
	</g>
	<g id="Group_291">
		<g id="Group_279">
			<path id="Path_1116" class="st5" d="M1013.5,401.1l-4.2-2.4l13,1.8l-1.1,0.7C1018.8,400.1,1016,400.1,1013.5,401.1z"/>
		</g>
		<g id="Group_288">
			<g id="Group_280">
				<path id="Path_1117" class="st5" d="M1027.6,393.6c-0.8,0.1-1.7,0.3-2.4,0.7l-3.7-2.2L1027.6,393.6z"/>
			</g>
			<g id="Group_281">
				<path id="Path_1118" class="st6" d="M1033.5,394.6c0.2,0.1,0.3,0.2,0.2,0.4c0,0.1-0.1,0.2-0.2,0.2c-0.3,0.2-0.7,0.2-1.1,0
					c-1-0.6-2.2-0.8-3.4-0.8c-1.2,0-2.3,0.3-3.4,0.8c-0.3,0.2-0.7,0.2-1.1,0l-5.5-3.2c-0.2-0.1-0.3-0.2-0.2-0.4
					c0-0.1,0.1-0.2,0.2-0.2c0.3-0.2,0.7-0.2,1.1,0l1.3,0.7l3.7,2.2c0.8-0.3,1.6-0.6,2.4-0.7C1029.6,393.3,1031.7,393.7,1033.5,394.6
					z"/>
			</g>
			<g id="Group_282">
				<path id="Path_1119" class="st5" d="M1029.3,397.1c0.1,0.1,0.1,0.2,0,0.3c-0.1,0.1-0.3,0.1-0.4,0c-0.1-0.1-0.1-0.2,0-0.3
					l-0.5-0.3l0.5,0.3C1029,397,1029.2,397,1029.3,397.1z"/>
			</g>
			<g id="Group_283">
				<path id="Path_1120" class="st6" d="M1030.4,396.4c0.7,0.4,0.7,1.1,0,1.5c-0.8,0.4-1.8,0.4-2.6,0c-0.4-0.1-0.6-0.6-0.5-1
					c0.1-0.2,0.3-0.4,0.5-0.5l0.5,0.3l0.5,0.3c-0.1,0.1-0.1,0.2,0,0.3c0.1,0.1,0.3,0.1,0.4,0c0.1-0.1,0.1-0.2,0-0.3
					c-0.1-0.1-0.3-0.1-0.4,0l-0.5-0.3l-0.5-0.3C1028.6,396,1029.6,396,1030.4,396.4z"/>
			</g>
			<g id="Group_284">
				<path id="Path_1121" class="st5" d="M1033,400l4.2,2.4l-13-1.8l1.1-0.6C1027.7,401.1,1030.5,401.1,1033,400z"/>
			</g>
			<g id="Group_285">
				<path id="Path_1122" class="st6" d="M1039.1,402.3c0.2,0.1,0.3,0.2,0.2,0.4c0,0.1-0.1,0.2-0.2,0.2c-0.3,0.2-0.7,0.2-1.1,0
					l-0.9-0.5l-4.2-2.4c-2.5,1-5.3,1-7.8,0l-1.1,0.6l-2.3,1.3c-0.2,0.1-0.3,0.1-0.5,0.1c-0.2,0-0.4,0-0.5-0.1
					c-2.1-1.1-4.6-1.1-6.8,0c-0.2,0.1-0.3,0.1-0.5,0.1c-0.2,0-0.4,0-0.5-0.1l-5.5-3.2c-0.2-0.1-0.3-0.2-0.2-0.4
					c0-0.1,0.1-0.2,0.2-0.2c0.3-0.2,0.7-0.2,1.1,0l0.9,0.5l4.2,2.4c2.5-1,5.3-1,7.8,0l1.1-0.7l2.3-1.3c0.3-0.2,0.7-0.2,1.1,0
					c2.1,1.1,4.6,1.1,6.8,0c0.3-0.2,0.7-0.2,1.1,0L1039.1,402.3z"/>
			</g>
			<g id="Group_286">
				<path id="Path_1123" class="st5" d="M1025.1,409l-6.2-1.5c0.8-0.1,1.7-0.3,2.5-0.7L1025.1,409z"/>
			</g>
			<g id="Group_287">
				<path id="Path_1124" class="st6" d="M1027.4,409.1c0.2,0.1,0.3,0.2,0.2,0.4c0,0.1-0.1,0.2-0.2,0.2c-0.3,0.2-0.7,0.2-1.1,0
					l-1.3-0.7l-3.7-2.2c-0.8,0.3-1.6,0.6-2.5,0.7c-2,0.3-4.1,0-5.9-1c-0.2-0.1-0.3-0.2-0.2-0.4c0-0.1,0.1-0.2,0.2-0.2
					c0.3-0.2,0.7-0.2,1.1,0c2.1,1.1,4.6,1.1,6.8,0c0.3-0.2,0.7-0.2,1.1,0L1027.4,409.1z"/>
			</g>
		</g>
		<g id="Group_289">
			<path id="Path_1125" class="st5" d="M1017.6,403.8c0.1,0,0.1,0.1,0.1,0.2c0,0,0,0.1-0.1,0.1l0.5,0.3l-0.5-0.3
				c-0.1,0.1-0.3,0.1-0.4,0c-0.1-0.1-0.1-0.2,0-0.3C1017.3,403.8,1017.5,403.8,1017.6,403.8z"/>
		</g>
		<g id="Group_290">
			<path id="Path_1126" class="st6" d="M1018.7,403.2c0.4,0.1,0.6,0.6,0.5,1c-0.1,0.2-0.3,0.4-0.5,0.5c-0.8,0.4-1.8,0.4-2.6,0
				c-0.4-0.1-0.6-0.6-0.5-1c0.1-0.2,0.3-0.4,0.5-0.5C1016.9,402.8,1017.9,402.8,1018.7,403.2z M1017.2,404.1c0.1,0.1,0.3,0.1,0.4,0
				c0.1-0.1,0.1-0.2,0-0.3c-0.1-0.1-0.3-0.1-0.4,0C1017.1,403.9,1017.1,404,1017.2,404.1"/>
		</g>
	</g>
	<g id="Group_304">
		<g id="Group_292">
			<path id="Path_1127" class="st5" d="M1048.6,421.5l-4.2-2.4l13,1.8l-1.1,0.7C1053.9,420.5,1051.1,420.5,1048.6,421.5z"/>
		</g>
		<g id="Group_301">
			<g id="Group_293">
				<path id="Path_1128" class="st5" d="M1062.8,414c-0.8,0.1-1.7,0.3-2.4,0.7l-3.7-2.2L1062.8,414z"/>
			</g>
			<g id="Group_294">
				<path id="Path_1129" class="st6" d="M1068.6,415c0.2,0.1,0.3,0.2,0.2,0.4c0,0.1-0.1,0.2-0.2,0.2c-0.3,0.2-0.7,0.2-1.1,0
					c-1-0.6-2.2-0.8-3.4-0.8c-1.2,0-2.3,0.3-3.4,0.8c-0.3,0.2-0.7,0.2-1.1,0l-5.5-3.2c-0.2-0.1-0.3-0.2-0.2-0.4
					c0-0.1,0.1-0.2,0.2-0.2c0.3-0.2,0.7-0.2,1.1,0l1.3,0.7l3.7,2.2c0.8-0.3,1.6-0.6,2.4-0.7C1064.8,413.7,1066.8,414.1,1068.6,415z"
					/>
			</g>
			<g id="Group_295">
				<path id="Path_1130" class="st5" d="M1064.4,417.5c0.1,0.1,0.1,0.2,0,0.2c-0.1,0.1-0.3,0.1-0.4,0c-0.1-0.1-0.1-0.2,0-0.2
					l-0.5-0.3l0.5,0.3C1064.1,417.4,1064.3,417.4,1064.4,417.5z"/>
			</g>
			<g id="Group_296">
				<path id="Path_1131" class="st6" d="M1065.5,416.8c0.7,0.4,0.7,1.1,0,1.5c-0.8,0.4-1.8,0.4-2.6,0c-0.4-0.1-0.6-0.6-0.5-1
					c0.1-0.2,0.3-0.4,0.5-0.5l0.5,0.3l0.5,0.3c-0.1,0.1-0.1,0.2,0,0.2c0.1,0.1,0.3,0.1,0.4,0c0.1-0.1,0.1-0.2,0-0.2
					c-0.1-0.1-0.3-0.1-0.4,0l-0.5-0.3l-0.5-0.3C1063.7,416.4,1064.7,416.4,1065.5,416.8z"/>
			</g>
			<g id="Group_297">
				<path id="Path_1132" class="st5" d="M1068.1,420.4l4.2,2.4l-13-1.8l1.1-0.6C1062.8,421.5,1065.6,421.5,1068.1,420.4z"/>
			</g>
			<g id="Group_298">
				<path id="Path_1133" class="st6" d="M1074.2,422.7c0.2,0.1,0.3,0.2,0.2,0.4c0,0.1-0.1,0.2-0.2,0.2c-0.3,0.2-0.7,0.2-1.1,0
					l-0.9-0.5l-4.2-2.4c-2.5,1-5.3,1-7.8,0l-1.1,0.6l-2.3,1.3c-0.3,0.2-0.7,0.2-1.1,0c-2.1-1.1-4.6-1.1-6.8,0
					c-0.2,0.1-0.3,0.1-0.5,0.1c-0.2,0-0.4,0-0.5-0.1l-5.5-3.2c-0.2-0.1-0.3-0.2-0.2-0.4c0-0.1,0.1-0.2,0.2-0.2
					c0.3-0.2,0.7-0.2,1.1,0l0.9,0.5l4.2,2.4c2.5-1,5.3-1,7.8,0l1.1-0.7l2.3-1.3c0.3-0.2,0.7-0.2,1.1,0c2.1,1.1,4.6,1.1,6.8,0
					c0.3-0.2,0.7-0.2,1.1,0L1074.2,422.7z"/>
			</g>
			<g id="Group_299">
				<path id="Path_1134" class="st5" d="M1060.2,429.4l-6.2-1.5c0.8-0.1,1.7-0.3,2.5-0.7L1060.2,429.4z"/>
			</g>
			<g id="Group_300">
				<path id="Path_1135" class="st6" d="M1062.5,429.5c0.2,0.1,0.3,0.2,0.2,0.4c0,0.1-0.1,0.2-0.2,0.2c-0.3,0.2-0.7,0.2-1.1,0
					l-1.3-0.7l-3.7-2.2c-0.8,0.3-1.6,0.6-2.5,0.7c-2,0.3-4.1,0-5.9-1c-0.2-0.1-0.3-0.2-0.2-0.4c0-0.1,0.1-0.2,0.2-0.2
					c0.3-0.2,0.7-0.2,1.1,0c2.1,1.1,4.6,1.1,6.8,0c0.3-0.2,0.7-0.2,1.1,0L1062.5,429.5z"/>
			</g>
		</g>
		<g id="Group_302">
			<path id="Path_1136" class="st5" d="M1052.7,424.2c0.1,0.1,0.1,0.2,0,0.3l0.5,0.3l-0.5-0.3c-0.1,0.1-0.3,0.1-0.4,0
				c-0.1-0.1-0.1-0.2,0-0.3C1052.4,424.2,1052.6,424.2,1052.7,424.2z"/>
		</g>
		<g id="Group_303">
			<path id="Path_1137" class="st6" d="M1053.8,423.6c0.4,0.1,0.6,0.6,0.5,1c-0.1,0.2-0.3,0.4-0.5,0.5c-0.8,0.4-1.8,0.4-2.6,0
				c-0.4-0.1-0.6-0.6-0.5-1c0.1-0.2,0.3-0.4,0.5-0.5C1052,423.2,1053,423.2,1053.8,423.6z M1052.3,424.5c0.1,0.1,0.3,0.1,0.4,0
				c0.1-0.1,0.1-0.2,0-0.3c-0.1-0.1-0.3-0.1-0.4,0C1052.2,424.3,1052.2,424.4,1052.3,424.5"/>
		</g>
	</g>
	<g id="Group_317">
		<g id="Group_305">
			<path id="Path_1138" class="st5" d="M1005.4,365l-4.2-2.4l13,1.8l-1.1,0.7C1010.6,364,1007.9,364,1005.4,365z"/>
		</g>
		<g id="Group_314">
			<g id="Group_306">
				<path id="Path_1139" class="st5" d="M1019.5,357.5c-0.8,0.1-1.7,0.3-2.4,0.7l-3.7-2.2L1019.5,357.5z"/>
			</g>
			<g id="Group_307">
				<path id="Path_1140" class="st6" d="M1025.4,358.5c0.2,0.1,0.3,0.2,0.2,0.4c0,0.1-0.1,0.2-0.2,0.2c-0.3,0.2-0.7,0.2-1.1,0
					c-1-0.6-2.2-0.8-3.4-0.8c-1.2,0-2.3,0.3-3.4,0.8c-0.3,0.2-0.7,0.2-1.1,0l-5.5-3.2c-0.2-0.1-0.3-0.2-0.2-0.4
					c0-0.1,0.1-0.2,0.2-0.2c0.3-0.2,0.7-0.2,1.1,0l1.3,0.7l3.7,2.2c0.8-0.3,1.6-0.6,2.4-0.7C1021.5,357.2,1023.6,357.6,1025.4,358.5
					z"/>
			</g>
			<g id="Group_308">
				<path id="Path_1141" class="st5" d="M1021.2,360.9c0.1,0.1,0.1,0.2,0,0.3c-0.1,0.1-0.3,0.1-0.4,0c-0.1-0.1-0.1-0.2,0-0.3
					l-0.5-0.3l0.5,0.3C1020.9,360.9,1021,360.9,1021.2,360.9z"/>
			</g>
			<g id="Group_309">
				<path id="Path_1142" class="st6" d="M1022.2,360.3c0.7,0.4,0.7,1.1,0,1.5c-0.8,0.4-1.8,0.4-2.6,0c-0.4-0.1-0.6-0.6-0.5-1
					c0.1-0.2,0.3-0.4,0.5-0.5l0.5,0.3l0.5,0.3c-0.1,0.1-0.1,0.2,0,0.3c0.1,0.1,0.3,0.1,0.4,0c0.1-0.1,0.1-0.2,0-0.3
					c-0.1-0.1-0.3-0.1-0.4,0l-0.5-0.3l-0.5-0.3C1020.5,359.9,1021.4,359.9,1022.2,360.3z"/>
			</g>
			<g id="Group_310">
				<path id="Path_1143" class="st5" d="M1024.8,363.9l4.2,2.4l-13-1.8l1.1-0.6C1019.6,365,1022.4,365,1024.8,363.9z"/>
			</g>
			<g id="Group_311">
				<path id="Path_1144" class="st6" d="M1030.9,366.2c0.3,0.2,0.3,0.4,0,0.6c-0.3,0.2-0.7,0.2-1.1,0l-0.9-0.5l-4.2-2.4
					c-2.5,1-5.3,1-7.8,0l-1.1,0.6l-2.3,1.3c-0.3,0.2-0.7,0.2-1.1,0c-2.1-1.1-4.6-1.1-6.8,0c-0.2,0.1-0.3,0.1-0.5,0.1
					c-0.2,0-0.4,0-0.5-0.1l-5.5-3.2c-0.2-0.1-0.3-0.2-0.2-0.4c0-0.1,0.1-0.2,0.2-0.2c0.3-0.2,0.7-0.2,1.1,0l0.9,0.5l4.2,2.4
					c2.5-1,5.3-1,7.8,0l1.1-0.7l2.3-1.3c0.2-0.1,0.3-0.1,0.5-0.1c0.2,0,0.4,0,0.5,0.1c2.1,1.1,4.6,1.1,6.8,0c0.3-0.2,0.7-0.2,1.1,0
					L1030.9,366.2z"/>
			</g>
			<g id="Group_312">
				<path id="Path_1145" class="st5" d="M1016.9,372.9l-6.2-1.5c0.8-0.1,1.7-0.3,2.5-0.7L1016.9,372.9z"/>
			</g>
			<g id="Group_313">
				<path id="Path_1146" class="st6" d="M1019.2,373c0.2,0.1,0.3,0.2,0.2,0.4c0,0.1-0.1,0.2-0.2,0.2c-0.3,0.2-0.7,0.2-1.1,0
					l-1.3-0.7l-3.7-2.2c-0.8,0.3-1.6,0.6-2.5,0.7c-2,0.3-4.1,0-5.9-1c-0.2-0.1-0.3-0.2-0.2-0.4c0-0.1,0.1-0.2,0.2-0.2
					c0.3-0.2,0.7-0.2,1.1,0c2.1,1.1,4.6,1.1,6.8,0c0.2-0.1,0.3-0.1,0.5-0.1c0.2,0,0.4,0,0.5,0.1L1019.2,373z"/>
			</g>
		</g>
		<g id="Group_315">
			<path id="Path_1147" class="st5" d="M1009.5,367.7c0.1,0.1,0.1,0.2,0,0.3l0.5,0.3l-0.5-0.3c-0.1,0.1-0.3,0.1-0.4,0
				c-0.1-0.1-0.1-0.2,0-0.3C1009.2,367.7,1009.4,367.7,1009.5,367.7z"/>
		</g>
		<g id="Group_316">
			<path id="Path_1148" class="st6" d="M1010.5,367.1c0.4,0.1,0.6,0.6,0.5,1c-0.1,0.2-0.3,0.4-0.5,0.5c-0.8,0.4-1.8,0.4-2.6,0
				c-0.4-0.1-0.6-0.6-0.5-1c0.1-0.2,0.3-0.4,0.5-0.5C1008.8,366.7,1009.7,366.7,1010.5,367.1z M1009.1,368c0.1,0.1,0.3,0.1,0.4,0
				c0.1-0.1,0.1-0.2,0-0.3c-0.1-0.1-0.3-0.1-0.4,0C1008.9,367.8,1008.9,367.9,1009.1,368"/>
		</g>
	</g>
	<g id="Group_330">
		<g id="Group_318">
			<path id="Path_1149" class="st5" d="M1040.5,385.4l-4.2-2.4l13,1.8l-1.1,0.7C1045.8,384.4,1043,384.4,1040.5,385.4z"/>
		</g>
		<g id="Group_327">
			<g id="Group_319">
				<path id="Path_1150" class="st5" d="M1054.6,377.9c-0.8,0.1-1.7,0.3-2.4,0.7l-3.7-2.2L1054.6,377.9z"/>
			</g>
			<g id="Group_320">
				<path id="Path_1151" class="st6" d="M1060.5,378.9c0.2,0.1,0.3,0.2,0.2,0.4c0,0.1-0.1,0.2-0.2,0.2c-0.3,0.2-0.7,0.2-1.1,0
					c-1-0.6-2.2-0.8-3.4-0.8c-1.2,0-2.3,0.3-3.4,0.8c-0.2,0.1-0.3,0.1-0.5,0.1c-0.2,0-0.4,0-0.5-0.1l-5.5-3.2
					c-0.2-0.1-0.3-0.2-0.2-0.4c0-0.1,0.1-0.2,0.2-0.2c0.3-0.2,0.7-0.2,1.1,0l1.3,0.7l3.7,2.2c0.8-0.3,1.6-0.6,2.4-0.7
					C1056.6,377.6,1058.7,378,1060.5,378.9z"/>
			</g>
			<g id="Group_321">
				<path id="Path_1152" class="st5" d="M1056.3,381.3c0.1,0.1,0.1,0.2,0,0.3c-0.1,0.1-0.3,0.1-0.4,0c-0.1-0.1-0.1-0.2,0-0.3
					l-0.5-0.3l0.5,0.3C1056,381.3,1056.1,381.3,1056.3,381.3z"/>
			</g>
			<g id="Group_322">
				<path id="Path_1153" class="st6" d="M1057.3,380.7c0.7,0.4,0.7,1.1,0,1.5c-0.8,0.4-1.8,0.4-2.6,0c-0.4-0.1-0.6-0.6-0.5-1
					c0.1-0.2,0.3-0.4,0.5-0.5l0.5,0.3l0.5,0.3c-0.1,0.1-0.1,0.2,0,0.3c0.1,0.1,0.3,0.1,0.4,0c0.1-0.1,0.1-0.2,0-0.3
					c-0.1-0.1-0.3-0.1-0.4,0l-0.5-0.3l-0.5-0.3C1055.6,380.3,1056.5,380.3,1057.3,380.7z"/>
			</g>
			<g id="Group_323">
				<path id="Path_1154" class="st5" d="M1060,384.3l4.2,2.4l-13-1.8l1.1-0.6C1054.7,385.4,1057.5,385.4,1060,384.3z"/>
			</g>
			<g id="Group_324">
				<path id="Path_1155" class="st6" d="M1066,386.6c0.2,0.1,0.3,0.2,0.2,0.4c0,0.1-0.1,0.2-0.2,0.2c-0.3,0.2-0.7,0.2-1.1,0
					l-0.9-0.5l-4.2-2.4c-2.5,1-5.3,1-7.8,0l-1.1,0.6l-2.3,1.3c-0.3,0.2-0.7,0.2-1.1,0c-2.1-1.1-4.6-1.1-6.8,0
					c-0.2,0.1-0.3,0.1-0.5,0.1c-0.2,0-0.4,0-0.5-0.1l-5.5-3.2c-0.2-0.1-0.3-0.2-0.2-0.4c0-0.1,0.1-0.2,0.2-0.2
					c0.3-0.2,0.7-0.2,1.1,0l0.9,0.5l4.2,2.4c2.5-1,5.3-1,7.8,0l1.1-0.7l2.3-1.3c0.3-0.2,0.7-0.2,1.1,0c2.1,1.1,4.6,1.1,6.8,0
					c0.3-0.2,0.7-0.2,1.1,0L1066,386.6z"/>
			</g>
			<g id="Group_325">
				<path id="Path_1156" class="st5" d="M1052,393.3l-6.2-1.5c0.8-0.1,1.7-0.3,2.5-0.7L1052,393.3z"/>
			</g>
			<g id="Group_326">
				<path id="Path_1157" class="st6" d="M1054.4,393.4c0.2,0.1,0.3,0.2,0.2,0.4c0,0.1-0.1,0.2-0.2,0.2c-0.3,0.2-0.7,0.2-1.1,0
					l-1.3-0.7l-3.7-2.2c-0.8,0.3-1.6,0.6-2.4,0.7c-2,0.3-4.1,0-5.9-1c-0.2-0.1-0.3-0.2-0.2-0.4c0-0.1,0.1-0.2,0.2-0.2
					c0.3-0.2,0.7-0.2,1.1,0c2.1,1.1,4.6,1.1,6.8,0c0.3-0.2,0.7-0.2,1.1,0L1054.4,393.4z"/>
			</g>
		</g>
		<g id="Group_328">
			<path id="Path_1158" class="st5" d="M1044.6,388.1c0.1,0.1,0.1,0.2,0,0.3l0.5,0.3l-0.5-0.3c-0.1,0.1-0.3,0.1-0.4,0
				c-0.1-0.1-0.1-0.2,0-0.3C1044.3,388.1,1044.5,388.1,1044.6,388.1z"/>
		</g>
		<g id="Group_329">
			<path id="Path_1159" class="st6" d="M1045.7,387.5c0.4,0.1,0.6,0.6,0.5,1c-0.1,0.2-0.3,0.4-0.5,0.5c-0.8,0.4-1.8,0.4-2.6,0
				c-0.4-0.1-0.6-0.6-0.5-1c0.1-0.2,0.3-0.4,0.5-0.5C1043.9,387.1,1044.9,387.1,1045.7,387.5z M1044.2,388.4c0.1,0.1,0.3,0.1,0.4,0
				c0.1-0.1,0.1-0.2,0-0.2c-0.1-0.1-0.3-0.1-0.4,0C1044,388.2,1044.1,388.3,1044.2,388.4"/>
		</g>
	</g>
	<g id="Group_343">
		<g id="Group_331">
			<path id="Path_1160" class="st5" d="M1075.6,405.8l-4.2-2.4l13,1.8l-1.1,0.7C1080.9,404.8,1078.1,404.8,1075.6,405.8z"/>
		</g>
		<g id="Group_340">
			<g id="Group_332">
				<path id="Path_1161" class="st5" d="M1089.7,398.3c-0.8,0.1-1.7,0.3-2.4,0.7l-3.7-2.2L1089.7,398.3z"/>
			</g>
			<g id="Group_333">
				<path id="Path_1162" class="st6" d="M1095.6,399.3c0.2,0.1,0.3,0.2,0.2,0.4c0,0.1-0.1,0.2-0.2,0.2c-0.3,0.2-0.7,0.2-1.1,0
					c-1-0.6-2.2-0.8-3.4-0.8c-1.2,0-2.3,0.3-3.4,0.8c-0.3,0.2-0.7,0.2-1.1,0l-5.5-3.2c-0.2-0.1-0.3-0.2-0.2-0.4
					c0-0.1,0.1-0.2,0.2-0.2c0.3-0.2,0.7-0.2,1.1,0l1.3,0.7l3.7,2.2c0.8-0.3,1.6-0.6,2.4-0.7C1091.7,398,1093.8,398.4,1095.6,399.3z"
					/>
			</g>
			<g id="Group_334">
				<path id="Path_1163" class="st5" d="M1091.4,401.7c0.1,0,0.1,0.1,0.1,0.2c0,0,0,0.1-0.1,0.1c-0.1,0.1-0.3,0.1-0.4,0
					c-0.1-0.1-0.1-0.2,0-0.3l-0.5-0.3l0.5,0.3C1091.1,401.7,1091.3,401.7,1091.4,401.7z"/>
			</g>
			<g id="Group_335">
				<path id="Path_1164" class="st6" d="M1092.5,401.1c0.7,0.4,0.7,1.1,0,1.5c-0.8,0.4-1.8,0.4-2.6,0c-0.4-0.1-0.6-0.6-0.5-1
					c0.1-0.2,0.3-0.4,0.5-0.5l0.5,0.3l0.5,0.3c-0.1,0.1-0.1,0.2,0,0.3c0.1,0.1,0.3,0.1,0.4,0c0.1,0,0.1-0.1,0.1-0.2
					c0,0,0-0.1-0.1-0.1c-0.1-0.1-0.3-0.1-0.4,0l-0.5-0.3l-0.5-0.3C1090.7,400.7,1091.6,400.7,1092.5,401.1z"/>
			</g>
			<g id="Group_336">
				<path id="Path_1165" class="st5" d="M1095.1,404.7l4.2,2.4l-13-1.8l1.1-0.6C1089.8,405.8,1092.6,405.8,1095.1,404.7z"/>
			</g>
			<g id="Group_337">
				<path id="Path_1166" class="st6" d="M1101.1,407c0.2,0.1,0.3,0.2,0.2,0.4c0,0.1-0.1,0.2-0.2,0.2c-0.3,0.2-0.7,0.2-1.1,0
					l-0.9-0.5l-4.2-2.4c-2.5,1-5.3,1-7.8,0l-1.1,0.6l-2.3,1.3c-0.3,0.2-0.7,0.2-1.1,0c-2.1-1.1-4.6-1.1-6.8,0
					c-0.2,0.1-0.3,0.1-0.5,0.1c-0.2,0-0.4,0-0.5-0.1l-5.5-3.2c-0.3-0.2-0.3-0.4,0-0.6c0.3-0.2,0.7-0.2,1.1,0l0.9,0.5l4.2,2.4
					c2.5-1,5.3-1,7.8,0l1.1-0.7l2.3-1.3c0.2-0.1,0.3-0.1,0.5-0.1c0.2,0,0.4,0,0.5,0.1c2.1,1.1,4.6,1.1,6.8,0c0.3-0.2,0.7-0.2,1.1,0
					L1101.1,407z"/>
			</g>
			<g id="Group_338">
				<path id="Path_1167" class="st5" d="M1087.1,413.7l-6.2-1.5c0.8-0.1,1.7-0.3,2.5-0.7L1087.1,413.7z"/>
			</g>
			<g id="Group_339">
				<path id="Path_1168" class="st6" d="M1089.5,413.8c0.2,0.1,0.3,0.2,0.2,0.4c0,0.1-0.1,0.2-0.2,0.2c-0.3,0.2-0.7,0.2-1.1,0
					l-1.3-0.7l-3.7-2.2c-0.8,0.3-1.6,0.6-2.5,0.7c-2,0.3-4.1,0-5.9-1c-0.3-0.2-0.3-0.4,0-0.6c0.3-0.2,0.7-0.2,1.1,0
					c2.1,1.1,4.6,1.1,6.8,0c0.3-0.2,0.7-0.2,1.1,0L1089.5,413.8z"/>
			</g>
		</g>
		<g id="Group_341">
			<path id="Path_1169" class="st5" d="M1079.7,408.5c0.1,0.1,0.1,0.2,0,0.3l0.5,0.3l-0.5-0.3c-0.1,0.1-0.3,0.1-0.4,0
				c-0.1-0.1-0.1-0.2,0-0.3C1079.4,408.5,1079.6,408.5,1079.7,408.5z"/>
		</g>
		<g id="Group_342">
			<path id="Path_1170" class="st6" d="M1080.8,407.9c0.4,0.1,0.6,0.6,0.5,1c-0.1,0.2-0.3,0.4-0.5,0.5c-0.8,0.4-1.8,0.4-2.6,0
				c-0.4-0.1-0.6-0.6-0.5-1c0.1-0.2,0.3-0.4,0.5-0.5C1079,407.5,1080,407.5,1080.8,407.9z M1079.3,408.8c0.1,0.1,0.3,0.1,0.4,0
				c0.1-0.1,0.1-0.2,0-0.3c-0.1-0.1-0.3-0.1-0.4,0C1079.2,408.6,1079.2,408.7,1079.3,408.8"/>
		</g>
	</g>
</g>
</svg>
