<?xml version="1.0" encoding="utf-8"?>
<!-- Generator: Adobe Illustrator 25.2.3, SVG Export Plug-In . SVG Version: 6.00 Build 0)  -->
<svg version="1.1" id="Layer_1" xmlns="http://www.w3.org/2000/svg" xmlns:xlink="http://www.w3.org/1999/xlink" x="0px" y="0px"
	 viewBox="0 0 250 280" style="enable-background:new 0 0 250 280;" xml:space="preserve">
<style type="text/css">
	.st0{fill:#EFF4F4;}
	.st1{fill:#FFFFFF;stroke:#292928;stroke-width:1.5;stroke-linecap:round;stroke-linejoin:round;}
	.st2{fill:none;stroke:#292928;stroke-width:1.5;stroke-linecap:round;stroke-linejoin:round;}
	.st3{fill:none;stroke:#292928;stroke-width:1.5;stroke-linecap:round;stroke-linejoin:round;stroke-miterlimit:4;}
	.st4{fill:#292928;stroke:#292928;stroke-width:1.5;stroke-linecap:round;stroke-linejoin:round;}
	.st5{fill:#FFFFFF;}
	.st6{fill:#292928;}
</style>
<circle class="st0" cx="131" cy="158.8" r="97.5"/>
<g id="icon_kipgryder" transform="translate(-534.067 -156.903)">
	<g id="Group_363">
		<g id="Group_345">
			<path id="Path_1171" class="st1" d="M692,325.4v70.2l6.8-3.9v-74L692,325.4z"/>
			<path id="Path_1172" class="st1" d="M752.8,282.7v77.9l6.8-3.9v-77.9L752.8,282.7z"/>
			<path id="Path_1173" class="st1" d="M692,325.4l-6.8-3.9v70.2l6.8,3.9V325.4z"/>
			<path id="Path_1174" class="st1" d="M668.4,366.6v15.6l6.8-3.9v-7.8L668.4,366.6z"/>
			<path id="Path_1175" class="st1" d="M668.4,382.2l-6.8-3.9v-70.2l6.8,3.9V382.2z"/>
			<path id="Path_1176" class="st1" d="M587.6,265v70.2l6.8-3.9V257L587.6,265z"/>
			<path id="Path_1177" class="st1" d="M587.6,335.3l-6.8-3.9v-70.2l6.8,3.9V335.3z"/>
			<path id="Path_1178" class="st1" d="M574.2,311.6v15.6l6.8-3.9v-7.7L574.2,311.6z"/>
			<path id="Path_1179" class="st1" d="M574.2,327.2l-6.8-3.9v-70.2l6.8,3.9V327.2z"/>
			<path id="Path_1180" class="st1" d="M752.8,360.5l-6.8-3.9v-62.4l6.8-11.6V360.5z"/>
		</g>
		<path id="Path_1181" class="st1" d="M698.7,317.7v58.4l54.1-31.2v-62.2"/>
		<path id="Path_1182" class="st1" d="M668.4,312v54.6l16.8,9.5v-54.6L668.4,312z"/>
		<path id="Path_1183" class="st1" d="M574.2,257v54.6l6.7,4.1v-54.6L574.2,257z"/>
		<path id="Path_1184" class="st1" d="M705.6,309.9"/>
		<path id="Path_1185" class="st1" d="M759.6,278.8"/>
		<path id="Path_1186" class="st1" d="M759.6,271l-54,31.2L692,317.7v7.7l13.5-15.6l54.1-31.1L759.6,271z"/>
		<path id="Path_1187" class="st1" d="M692,317.7l-30.3-17.4v7.8l30.3,17.3L692,317.7z"/>
		<path id="Path_1188" class="st1" d="M655,210.5l-54,31.2l-13.6,15.6v7.7l13.5-15.6l54.1-31.1L655,210.5z"/>
		<path id="Path_1189" class="st1" d="M587.5,257.2l-20.1-11.9v7.8l20.1,11.9V257.2z"/>
		<path id="Path_1190" class="st1" d="M567.4,245.3l13.6-15.6l54.2-31.4l19.8,12.2l-54,31.2l-13.6,15.6L567.4,245.3z"/>
		<path id="Path_1191" class="st1" d="M675.2,284.7l-27.1,7.7l-46.9-27.5l9.2-25.5l27.3-15.5l38.2-2.2l39.5,24l-6.7,19.1
			L675.2,284.7z"/>
		<path id="Path_1192" class="st1" d="M648.1,292.4v62.5l-46.9-27.5v-62.4L648.1,292.4z"/>
		<path id="Path_1193" class="st1" d="M661.7,348.6l-13.5,6.2v-62.5l27.1-7.7l-13.6,15.6V348.6z"/>
		<line id="Line_75" class="st2" x1="715.4" y1="245.8" x2="715.4" y2="261.1"/>
		<g id="Group_348">
			<g id="Group_346">
				
					<ellipse id="Ellipse_45" transform="matrix(2.999987e-03 -1 1 2.999987e-03 401.1942 913.1271)" class="st3" cx="658.5" cy="255.4" rx="21.7" ry="37.4"/>
			</g>
			<g id="Group_347">
				
					<ellipse id="Ellipse_46" transform="matrix(2.999987e-03 -1 1 2.999987e-03 401.5085 912.8067)" class="st3" cx="658.5" cy="255" rx="1.8" ry="3.1"/>
			</g>
			<line id="Line_76" class="st2" x1="661.7" y1="255" x2="661.7" y2="276.8"/>
			<line id="Line_77" class="st2" x1="655.4" y1="255" x2="655.4" y2="276.8"/>
		</g>
		<path id="Path_1194" class="st1" d="M661.7,300.3l13.6-15.6l54.2-31.4l30.1,17.7l-54,31.2L692,317.7L661.7,300.3z"/>
		<path id="Path_1195" class="st4" d="M672.2,298.7l9-10.6l16.7,9.7l-9,10.6L672.2,298.7z"/>
		<g id="Group_359">
			<g id="Group_358">
				<g id="Group_349">
					<path id="Path_1196" class="st5" d="M749.7,264.3l-3-2.1l-44.2-76.2l1.2-0.7L749.7,264.3z"/>
				</g>
				<g id="Group_350">
					<path id="Path_1197" class="st6" d="M751,265.3l-4.1-1.4c-0.1,0.1-0.3,0.1-0.5,0c-0.2-0.1-0.3-0.2-0.4-0.4l-26.8-46.2l-2.3-4
						l-11.7-20.2l-2.3-4l-1.7-3c-0.1-0.2-0.1-0.4-0.1-0.5c0-0.2,0.1-0.3,0.3-0.4l2.2-1.3c0.1-0.1,0.3-0.1,0.5,0
						c0.2,0.1,0.3,0.2,0.4,0.4l47.5,81.4C751.9,265.8,751.1,265.3,751,265.3z M746.8,262.5l2.9,1.8l-46-78.9l-1.2,0.7L746.8,262.5"
						/>
				</g>
				<g id="Group_351">
					<path id="Path_1198" class="st6" d="M707.1,218.9c-1.9-7.7-6-14.7-11.7-20.2l1.1-0.6c5.6,5.6,9.7,12.5,11.7,20.2L707.1,218.9z"
						/>
				</g>
				<g id="Group_352">
					<path id="Path_1199" class="st5" d="M718.4,216l-46.5,27.1l-0.8-1.4l46.5-27.1L718.4,216z"/>
				</g>
				<g id="Group_353">
					<path id="Path_1200" class="st5" d="M704.4,191.8l-46.5,27.1l-0.8-1.4l46.5-27.1L704.4,191.8z"/>
				</g>
				<g id="Group_354">
					<path id="Path_1201" class="st6" d="M718.4,216l0.7,1.3l-10,5.8l-1.2,0.7l-35.9,20.9c-0.1,0.1-0.3,0.1-0.5,0
						c-0.2-0.1-0.3-0.2-0.4-0.4l-1.6-2.7c-0.1-0.2-0.1-0.4-0.1-0.5c0-0.2,0.1-0.3,0.3-0.4l37.3-21.7l1.1-0.6l8.6-5l0.8,1.3l-46.5,27
						l0.8,1.4L718.4,216z"/>
				</g>
				<g id="Group_355">
					<path id="Path_1202" class="st6" d="M709.2,223.1c1.7,12.7-2.9,24.7-12.8,30.5c-14.1,8.2-33.7,0.8-43.7-16.5s-6.7-38,7.4-46.2
						c10-5.8,22.7-3.8,32.8,4l-1.2,0.7c-2.6-1.9-5.4-3.5-8.4-4.6c-7.6-2.9-15.7-2.7-22.4,1.3s-10.9,10.9-12.2,18.9
						c-2.3,18.1,7.8,35.5,24.7,42.5c7.6,2.9,15.7,2.7,22.4-1.3c6.8-3.9,10.9-10.9,12.2-18.9c0.5-3.2,0.6-6.4,0.2-9.6L709.2,223.1z"
						/>
				</g>
				<g id="Group_356">
					<path id="Path_1203" class="st5" d="M702.7,208c2,3.4,3.5,7.1,4.4,10.9l-37.3,21.7c-0.1,0.1-0.2,0.2-0.3,0.4
						c0,0.2,0,0.4,0.1,0.5l1.6,2.7c0.1,0.2,0.2,0.3,0.4,0.4c0.2,0.1,0.3,0,0.5,0l35.9-20.9c0.4,3.2,0.3,6.5-0.2,9.6
						c-1.3,8-5.5,14.9-12.2,18.9c-6.8,3.9-14.8,4.1-22.4,1.3c-16.9-7-27-24.4-24.7-42.5c1.3-8,5.5-14.9,12.2-18.9s14.8-4.1,22.4-1.3
						c3,1.2,5.9,2.7,8.4,4.6l-35.9,20.9c-0.1,0.1-0.2,0.2-0.3,0.4c0,0.2,0,0.4,0.1,0.5l1.6,2.7c0.1,0.2,0.2,0.3,0.4,0.4
						c0.2,0.1,0.3,0,0.5,0l37.3-21.7C698.2,201.5,700.7,204.6,702.7,208z"/>
				</g>
				<g id="Group_357">
					<path id="Path_1204" class="st6" d="M704.4,191.8l0.8,1.3l-8.6,5l-1.1,0.6l-37.3,21.7c-0.1,0.1-0.3,0.1-0.5,0
						c-0.2-0.1-0.3-0.2-0.4-0.4l-1.6-2.7c-0.1-0.2-0.1-0.4-0.1-0.5c0-0.2,0.1-0.3,0.3-0.4l35.9-20.9l1.2-0.7l10-5.8l0.8,1.3
						L657,217.4l0.8,1.4L704.4,191.8z"/>
				</g>
			</g>
		</g>
		<g id="Group_360">
			
				<ellipse id="Ellipse_47" transform="matrix(2.999987e-03 -1 1 2.999987e-03 394.4027 830.1749)" class="st3" cx="613.5" cy="217.3" rx="1.2" ry="2"/>
		</g>
		<g id="Group_361">
			<path id="Path_1205" class="st2" d="M615.5,227.2c0,0.4-0.2,0.7-0.6,0.9c-0.9,0.5-2,0.5-2.8,0c-0.3-0.1-0.6-0.5-0.6-0.8"/>
		</g>
		<line id="Line_78" class="st2" x1="611.5" y1="217.3" x2="611.5" y2="227.2"/>
		<line id="Line_79" class="st2" x1="615.5" y1="222.9" x2="615.5" y2="227.2"/>
		<path id="Path_1206" class="st1" d="M615,218.1l6.1,3.7l-2.1,3.1l-3.4-2"/>
		<g id="Group_362">
			<path id="Path_1207" class="st1" d="M620,221.8c0.7-0.4,1.3-0.1,1.3,0.8c-0.1,0.9-0.5,1.8-1.3,2.3c-0.7,0.4-1.3,0.1-1.3-0.8
				C618.7,223.2,619.2,222.3,620,221.8z"/>
		</g>
	</g>
	<path id="Path_1208" class="st1" d="M698.7,317.7l6.8-7.9l47.3-27.1"/>
	<path id="Path_1209" class="st1" d="M594.4,315.7l6.8-4v-46.8l6.9-19.6l-7.1,4.1l-6.6,7.6L594.4,315.7z"/>
</g>
</svg>
